<?xml version="1.0" encoding="utf-8" ?>
<svg baseProfile="full" height="2414px" version="1.1" width="1541px" xmlns="http://www.w3.org/2000/svg" xmlns:ev="http://www.w3.org/2001/xml-events" xmlns:xlink="http://www.w3.org/1999/xlink"><defs /><g id="background"><rect fill="#A2CAEA" height="2414px" width="1541px" x="0" y="0" /></g><g id="boroughs"><g id="staten_island"><polygon fill="#F2EAD6" points="105,1651 103,1652 99,1652 91,1643 104,1638 107,1640 105,1645 106,1649 105,1651" /><polygon fill="#F2EAD6" points="331,1488 334,1486 342,1483 353,1484 364,1488 367,1487 373,1487 377,1489 377,1495 375,1499 383,1493 384,1493 376,1500 378,1502 386,1496 387,1497 379,1503 383,1512 386,1513 384,1516 385,1519 393,1513 395,1514 386,1520 395,1533 397,1540 403,1547 421,1545 422,1546 403,1548 411,1558 410,1560 417,1569 433,1579 450,1582 452,1585 463,1587 476,1593 484,1601 487,1600 492,1604 501,1609 507,1614 514,1615 519,1614 521,1619 531,1631 532,1635 536,1638 533,1645 529,1660 527,1674 525,1686 522,1704 524,1705 520,1717 517,1738 517,1745 513,1762 513,1767 510,1773 508,1784 506,1788 499,1817 499,1825 496,1830 496,1837 493,1837 491,1841 491,1862 487,1863 485,1870 485,1882 480,1893 482,1903 479,1905 478,1917 478,1921 469,1922 465,1938 466,1957 459,1960 459,1963 455,1964 451,1968 449,1979 445,1983 443,1986 441,1997 441,2007 441,2044 439,2061 434,2074 425,2076 421,2071 410,2063 409,2055 416,2053 425,2048 430,2041 435,2013 434,2007 430,2003 422,1997 413,1995 404,1997 398,2002 394,2008 391,2008 392,2017 389,2030 386,2032 388,2035 394,2043 396,2050 401,2052 393,2055 393,2063 387,2069 382,2080 382,2087 378,2091 372,2112 370,2113 366,2124 364,2124 360,2128 357,2129 353,2138 345,2155 343,2159 339,2160 336,2162 329,2179 328,2189 324,2187 314,2188 305,2201 302,2209 299,2226 297,2239 295,2248 296,2253 294,2258 290,2260 280,2258 276,2259 273,2255 269,2254 250,2272 246,2279 245,2294 244,2302 241,2305 240,2313 239,2324 233,2330 223,2337 219,2344 211,2345 199,2354 194,2362 185,2372 183,2379 181,2387 168,2395 164,2404 155,2407 146,2404 143,2401 134,2399 118,2386 113,2376 109,2373 112,2364 111,2359 107,2350 109,2344 106,2341 109,2334 109,2331 112,2323 116,2325 120,2321 117,2320 119,2314 117,2312 119,2308 127,2305 128,2298 130,2298 131,2293 123,2293 118,2295 117,2289 112,2282 106,2281 106,2276 101,2258 99,2251 94,2246 91,2239 78,2232 74,2233 75,2227 69,2223 64,2217 59,2213 52,2213 52,2199 55,2186 61,2187 65,2181 69,2171 68,2166 71,2162 67,2154 70,2149 77,2148 78,2143 77,2131 82,2128 83,2123 90,2121 107,2115 108,2112 115,2116 118,2113 114,2108 120,2111 126,2100 125,2098 129,2098 130,2092 130,2087 127,2081 128,2076 124,2069 121,2065 118,2054 116,2038 114,2035 113,2029 111,2021 107,2010 106,2008 102,1992 98,1985 98,1979 96,1969 88,1954 82,1946 86,1934 85,1931 87,1924 88,1902 85,1897 72,1885 63,1878 57,1877 52,1873 45,1864 37,1849 34,1843 33,1826 28,1820 29,1818 22,1811 13,1799 14,1796 9,1788 8,1788 2,1774 3,1772 0,1764 2,1753 5,1750 4,1741 6,1739 6,1732 3,1729 5,1727 15,1691 18,1684 23,1687 27,1687 21,1682 23,1678 32,1676 36,1673 40,1680 45,1678 47,1673 50,1671 46,1666 49,1662 56,1664 60,1668 63,1669 68,1672 70,1668 73,1666 86,1663 86,1657 89,1665 95,1665 94,1660 100,1659 101,1667 110,1666 113,1666 113,1664 127,1658 131,1660 136,1657 135,1655 139,1652 139,1647 145,1650 144,1643 152,1638 155,1635 160,1635 159,1631 162,1630 161,1626 174,1615 175,1614 183,1606 188,1605 190,1603 202,1603 219,1595 221,1590 221,1587 224,1584 228,1586 233,1579 240,1571 247,1554 252,1548 267,1539 269,1536 283,1533 287,1528 295,1524 304,1516 312,1505 315,1498 323,1491 331,1488" /></g><g id="queens"><polygon fill="#F2EAD6" points="1226,1281 1233,1280 1238,1283 1242,1283 1244,1286 1242,1292 1248,1289 1250,1293 1249,1298 1242,1303 1229,1301 1222,1295 1219,1299 1214,1297 1208,1300 1207,1296 1213,1283 1216,1280 1223,1279 1226,1281" /><polygon fill="#F2EAD6" points="1278,1201 1286,1204 1289,1202 1295,1205 1300,1219 1299,1224 1283,1219 1278,1214 1275,1203 1278,1201" /><polygon fill="#F2EAD6" points="1215,1228 1209,1234 1204,1235 1205,1227 1201,1217 1204,1210 1215,1214 1219,1221 1215,1228" /><polygon fill="#F2EAD6" points="1331,1154 1337,1158 1330,1173 1317,1182 1307,1185 1299,1177 1297,1168 1303,1157 1311,1151 1331,1154" /><polygon fill="#F2EAD6" points="1322,1218 1321,1214 1324,1206 1330,1201 1349,1189 1355,1183 1361,1162 1367,1160 1366,1171 1363,1183 1365,1192 1371,1201 1375,1195 1370,1185 1374,1170 1373,1164 1377,1157 1375,1151 1370,1146 1373,1127 1375,1119 1386,1113 1391,1114 1394,1120 1400,1144 1398,1156 1391,1158 1389,1168 1395,1173 1399,1173 1405,1162 1403,1148 1405,1146 1412,1151 1414,1156 1420,1158 1425,1153 1435,1148 1424,1150 1420,1143 1418,1133 1412,1125 1413,1122 1408,1114 1407,1104 1402,1101 1397,1103 1391,1100 1388,1104 1383,1093 1387,1089 1402,1079 1409,1078 1413,1085 1423,1083 1424,1080 1435,1082 1449,1076 1461,1061 1468,1053 1473,1052 1492,1065 1493,1067 1508,1073 1512,1073 1519,1077 1521,1081 1528,1096 1540,1110 1521,1119 1511,1127 1503,1139 1503,1147 1497,1153 1490,1157 1483,1158 1471,1163 1467,1166 1453,1179 1424,1198 1416,1205 1405,1216 1372,1246 1368,1252 1353,1265 1343,1276 1326,1288 1312,1305 1303,1313 1292,1328 1276,1348 1267,1361 1253,1380 1234,1408 1228,1413 1215,1434 1210,1443 1206,1443 1192,1460 1184,1472 1175,1482 1167,1495 1158,1503 1150,1515 1146,1517 1130,1538 1118,1548 1107,1554 1096,1566 1068,1609 1052,1631 1043,1645 1030,1663 1024,1673 1019,1677 1021,1682 1009,1656 998,1638 994,1628 997,1620 1001,1610 1009,1605 1012,1600 1022,1575 1027,1570 1037,1564 1046,1555 1052,1544 1058,1536 1064,1533 1068,1535 1080,1536 1084,1534 1090,1527 1096,1526 1102,1518 1107,1507 1107,1499 1111,1488 1124,1484 1130,1477 1137,1474 1139,1476 1145,1468 1154,1463 1161,1455 1183,1415 1207,1366 1213,1358 1219,1354 1231,1351 1249,1340 1249,1334 1258,1329 1276,1309 1275,1302 1287,1288 1293,1289 1309,1255 1317,1245 1315,1239 1337,1239 1335,1237 1321,1237 1319,1234 1319,1228 1322,1225 1331,1227 1335,1232 1340,1231 1335,1224 1322,1218" /><polygon fill="#F2EAD6" points="1401,1076 1397,1079 1376,1084 1381,1055 1385,1055 1401,1076" /><polygon fill="#F2EAD6" points="1274,1079 1291,1080 1283,1098 1291,1145 1283,1149 1279,1139 1258,1122 1254,1110 1262,1091 1274,1079" /><polygon fill="#F2EAD6" points="1222,1097 1238,1113 1244,1130 1261,1146 1253,1146 1231,1123 1217,1116 1206,1100 1216,1093 1222,1097" /><polygon fill="#F2EAD6" points="1167,1075 1178,1089 1183,1094 1196,1109 1204,1115 1212,1115 1215,1119 1223,1122 1219,1128 1219,1136 1225,1138 1232,1134 1236,1140 1233,1146 1234,1155 1242,1163 1253,1167 1250,1171 1263,1185 1266,1192 1267,1210 1270,1223 1276,1240 1276,1255 1264,1260 1241,1274 1233,1277 1230,1270 1236,1260 1247,1255 1250,1243 1258,1245 1256,1237 1253,1237 1253,1226 1245,1212 1248,1204 1245,1186 1236,1182 1238,1187 1243,1190 1243,1199 1239,1193 1235,1193 1217,1182 1212,1185 1199,1188 1191,1196 1164,1143 1161,1134 1162,1130 1157,1115 1137,1095 1140,1091 1156,1095 1159,1097 1171,1089 1162,1073 1167,1075" /><polygon fill="#F2EAD6" points="638,625 639,618 647,625 648,634 651,634 664,622 663,617 653,606 650,599 660,590 668,586 664,581 665,575 678,576 680,551 685,551 691,557 691,564 688,567 687,574 722,578 762,579 762,590 757,593 765,594 760,608 751,615 770,627 780,629 794,627 803,627 811,618 816,601 820,594 819,589 827,578 822,578 811,589 797,590 792,583 784,580 785,574 779,571 778,564 775,560 768,545 763,543 758,534 757,528 754,529 740,539 736,534 727,537 725,534 719,530 718,524 724,523 724,517 731,512 732,509 725,512 722,504 727,497 720,494 716,487 719,482 733,481 729,472 735,465 743,467 746,462 751,459 751,453 758,449 769,459 776,467 774,471 779,477 783,474 792,475 797,471 792,461 800,448 799,444 796,438 788,433 793,430 792,424 799,423 803,412 805,403 807,399 825,403 838,403 837,399 842,399 864,394 868,388 873,388 882,383 887,383 901,380 907,394 916,402 921,401 924,391 939,383 944,379 950,370 945,358 940,357 940,354 944,346 948,344 956,343 967,348 971,353 978,355 982,360 990,365 989,371 983,379 986,381 1000,389 1019,398 1028,407 1046,418 1073,427 1077,431 1091,430 1105,435 1113,442 1125,440 1122,438 1117,440 1110,438 1087,424 1083,415 1076,409 1080,398 1067,387 1063,374 1062,364 1066,354 1096,360 1166,370 1190,376 1200,376 1221,381 1262,389 1290,393 1315,430 1326,445 1325,455 1328,506 1320,514 1305,525 1298,532 1280,553 1270,569 1280,579 1301,604 1309,616 1327,646 1335,658 1359,699 1370,718 1382,737 1385,747 1388,763 1404,797 1413,809 1416,815 1431,828 1444,844 1446,851 1433,867 1421,877 1412,890 1407,900 1417,920 1422,926 1420,929 1426,933 1439,943 1431,951 1431,938 1423,938 1416,952 1412,951 1407,935 1397,926 1376,920 1364,918 1366,922 1383,925 1393,927 1401,933 1405,942 1411,960 1403,974 1387,994 1371,1020 1373,1043 1377,1048 1377,1060 1371,1060 1369,1049 1365,1049 1351,1043 1342,1041 1338,1042 1333,1047 1332,1055 1332,1082 1331,1085 1335,1093 1340,1098 1348,1102 1357,1102 1360,1107 1355,1117 1347,1131 1343,1134 1342,1149 1337,1145 1329,1148 1323,1144 1313,1144 1303,1149 1302,1140 1298,1133 1301,1122 1298,1115 1300,1113 1296,1097 1296,1093 1306,1089 1312,1084 1317,1059 1318,1051 1316,1041 1311,1041 1302,1038 1298,1039 1286,1037 1282,1040 1272,1034 1263,1036 1252,1034 1245,1036 1234,1035 1213,1035 1205,1034 1186,1035 1163,1035 1147,1027 1130,1008 1124,989 1131,976 1153,969 1153,965 1129,972 1119,989 1125,1010 1139,1026 1148,1038 1139,1033 1135,1037 1137,1042 1128,1042 1115,1037 1095,1016 1098,1009 1092,1014 1117,1043 1122,1049 1121,1053 1108,1058 1084,1030 1069,1011 1069,1006 1065,1005 1063,1009 1066,1015 1113,1071 1112,1071 1084,1092 1073,1100 1062,1097 1057,1092 1056,1076 1058,1070 1053,1071 1050,1078 1044,1080 1035,1081 1031,1077 1024,1078 1018,1072 1008,1069 1011,1063 1008,1059 1008,1067 1003,1063 998,1065 1004,1055 1011,1047 1001,1036 1009,1029 985,1000 977,1007 952,977 950,979 940,967 935,972 925,959 916,948 896,922 881,935 871,958 865,978 866,985 858,996 855,1003 852,1002 848,1012 839,1007 838,1023 811,1008 812,1007 802,998 802,994 782,991 783,982 749,977 750,971 740,970 742,963 696,956 697,949 693,949 687,942 678,940 676,936 679,927 668,920 661,910 656,908 656,901 668,895 652,899 644,896 633,891 622,892 612,896 604,897 591,895 583,887 573,881 556,881 566,866 566,848 564,849 565,861 563,869 551,882 535,884 526,885 515,893 508,905 501,905 499,899 501,896 496,890 496,882 499,881 499,871 496,872 495,866 496,854 505,854 509,850 497,852 500,847 498,836 500,821 501,782 502,766 503,752 509,739 515,732 516,726 513,720 503,722 496,712 496,702 498,695 507,690 517,693 521,689 524,679 529,672 535,645 539,638 538,634 542,609 545,605 546,597 559,595 574,590 582,589 598,593 605,597 600,612 593,616 593,627 597,617 603,615 608,605 616,605 627,607 627,613 634,616 633,623 638,625" /></g><g id="brooklyn"><polygon fill="#F2EAD6" points="1161,1387 1155,1393 1147,1388 1136,1375 1135,1362 1140,1345 1152,1344 1165,1353 1168,1373 1161,1387" /><polygon fill="#F2EAD6" points="954,1407 969,1407 989,1418 992,1426 990,1431 983,1431 971,1424 953,1420 950,1416 954,1407" /><polygon fill="#F2EAD6" points="1172,1299 1160,1311 1149,1316 1131,1305 1134,1291 1140,1290 1154,1284 1162,1284 1173,1289 1172,1299" /><polygon fill="#F2EAD6" points="1097,1290 1096,1301 1093,1294 1084,1288 1077,1280 1081,1279 1085,1280 1088,1284 1097,1290" /><polygon fill="#F2EAD6" points="1120,1226 1127,1238 1136,1233 1140,1220 1149,1242 1143,1267 1118,1253 1123,1240 1108,1228 1120,1226" /><polygon fill="#F2EAD6" points="1155,1197 1156,1213 1178,1205 1189,1243 1174,1263 1152,1258 1159,1241 1150,1229 1144,1203 1155,1197" /><polygon fill="#F2EAD6" points="1164,1143 1191,1196 1175,1197 1180,1191 1180,1183 1173,1177 1174,1172 1171,1165 1165,1160 1161,1152 1164,1143" /><polygon fill="#F2EAD6" points="1069,1249 1049,1269 1041,1229 1056,1197 1068,1203 1073,1222 1080,1236 1069,1249" /><polygon fill="#F2EAD6" points="1115,1158 1114,1175 1120,1168 1140,1176 1107,1212 1098,1229 1083,1197 1086,1174 1107,1168 1115,1158" /><polygon fill="#F2EAD6" points="1145,1131 1145,1166 1123,1150 1125,1140 1137,1126 1145,1131" /><polygon fill="#F2EAD6" points="1109,1146 1109,1156 1077,1172 1074,1149 1095,1117 1110,1121 1112,1138 1109,1146" /><polygon fill="#F2EAD6" points="526,890 534,886 555,885 558,889 560,885 572,884 579,887 590,897 599,900 611,900 630,894 639,898 642,902 660,918 665,918 666,924 654,938 658,942 651,951 657,955 654,960 668,972 671,973 658,959 660,955 655,948 661,942 658,938 658,935 668,925 676,929 673,937 678,940 687,942 693,949 697,949 696,956 742,963 740,970 750,971 749,977 783,982 782,991 802,994 802,998 812,1007 811,1008 838,1023 839,1007 848,1012 852,1002 855,1003 858,996 866,985 865,978 871,958 881,935 896,922 916,948 925,959 935,972 940,967 950,979 952,977 977,1007 985,1000 1009,1029 1001,1036 1011,1047 1004,1055 998,1065 1001,1071 1006,1075 1012,1074 1018,1077 1024,1081 1036,1086 1035,1089 1039,1104 1051,1115 1035,1130 1032,1141 1027,1148 1020,1146 1009,1135 1003,1133 997,1134 955,1108 955,1110 996,1136 999,1142 1007,1146 1023,1157 1030,1157 1024,1160 1016,1174 1008,1174 999,1171 995,1172 983,1167 982,1162 976,1163 972,1158 966,1157 961,1163 950,1159 945,1150 942,1152 934,1150 932,1153 941,1157 945,1155 948,1159 959,1166 969,1166 985,1172 1006,1182 1005,1189 1001,1204 997,1210 998,1220 1005,1223 1004,1229 997,1226 991,1231 986,1245 987,1252 986,1259 977,1269 969,1272 954,1266 942,1268 891,1266 890,1272 899,1273 952,1275 952,1278 961,1279 964,1283 972,1277 978,1276 986,1282 987,1293 996,1303 1002,1303 1008,1300 1015,1301 1016,1305 1009,1312 1011,1314 1017,1305 1021,1305 1023,1311 1021,1319 1022,1328 1015,1339 1009,1346 1004,1348 998,1343 992,1329 950,1313 947,1318 959,1322 985,1331 998,1350 988,1359 982,1355 971,1363 981,1368 973,1375 964,1377 948,1371 941,1355 944,1347 937,1339 937,1333 933,1343 939,1349 936,1360 939,1365 937,1372 962,1382 970,1383 984,1379 986,1374 998,1366 1000,1366 1004,1359 1011,1354 1024,1349 1035,1340 1043,1327 1053,1323 1053,1320 1061,1323 1061,1328 1075,1341 1079,1347 1085,1352 1088,1358 1106,1378 1114,1387 1123,1392 1126,1417 1114,1432 1099,1444 1094,1447 1084,1459 1073,1450 1068,1439 1062,1432 1055,1429 1055,1426 1047,1420 1041,1421 1038,1427 1032,1432 1023,1432 1026,1435 1014,1447 1010,1447 1000,1427 990,1414 980,1406 971,1402 956,1399 944,1401 940,1404 941,1413 938,1415 917,1410 916,1405 909,1408 908,1415 923,1419 930,1418 952,1425 958,1429 964,1428 976,1432 984,1436 993,1437 996,1442 990,1453 988,1462 978,1467 971,1473 959,1469 955,1466 961,1449 959,1450 953,1466 943,1465 938,1456 938,1450 933,1446 925,1449 937,1458 936,1461 941,1468 951,1474 947,1479 956,1474 961,1477 972,1478 977,1475 985,1471 991,1465 995,1459 1000,1453 1010,1452 1015,1461 1011,1466 1018,1462 1021,1466 1011,1473 1000,1475 985,1478 977,1481 960,1490 958,1495 941,1502 904,1521 886,1534 889,1538 900,1531 925,1524 956,1505 957,1505 973,1523 972,1526 939,1546 932,1548 929,1554 910,1567 897,1576 866,1598 836,1623 831,1625 805,1644 791,1655 766,1669 764,1672 758,1666 750,1665 741,1667 730,1671 721,1670 711,1659 710,1652 713,1644 718,1635 723,1630 737,1626 749,1619 753,1621 774,1617 779,1613 785,1613 789,1610 789,1598 786,1600 785,1608 771,1608 768,1606 767,1592 756,1611 754,1612 739,1615 737,1611 741,1602 735,1604 746,1583 740,1580 731,1599 735,1589 730,1587 729,1582 730,1576 728,1574 724,1580 720,1580 722,1574 719,1573 715,1577 709,1573 699,1567 690,1565 673,1562 660,1561 650,1562 635,1568 628,1566 596,1577 584,1576 572,1570 566,1569 559,1563 547,1557 540,1553 523,1533 514,1517 503,1492 496,1447 496,1439 490,1437 493,1420 498,1422 501,1411 512,1412 513,1399 497,1396 497,1394 514,1396 516,1390 512,1388 506,1383 507,1378 512,1373 501,1370 518,1372 518,1369 504,1367 512,1367 514,1363 509,1361 512,1356 521,1352 522,1348 510,1346 521,1347 522,1343 509,1340 510,1338 523,1340 523,1337 512,1335 511,1334 523,1335 524,1331 510,1330 513,1320 529,1321 529,1317 517,1315 520,1310 538,1313 539,1307 526,1305 529,1298 540,1299 538,1292 530,1289 546,1291 536,1286 537,1284 553,1286 555,1277 540,1274 547,1266 548,1260 541,1246 543,1261 537,1264 538,1271 527,1273 524,1260 522,1260 524,1281 522,1273 514,1278 516,1295 503,1305 499,1306 494,1303 481,1286 477,1282 483,1282 499,1303 512,1294 510,1277 505,1276 503,1273 493,1274 491,1264 489,1273 482,1272 485,1262 483,1262 480,1279 476,1279 478,1271 470,1266 470,1259 463,1262 465,1254 458,1249 465,1232 469,1221 473,1223 469,1231 476,1234 480,1217 474,1215 471,1218 478,1202 485,1198 484,1176 492,1173 492,1171 484,1168 483,1157 482,1141 480,1125 480,1109 479,1103 486,1098 492,1099 491,1093 498,1092 497,1090 511,1078 520,1075 519,1073 527,1070 531,1074 534,1074 538,1080 543,1082 549,1080 549,1090 551,1090 551,1079 553,1077 564,1080 550,1074 551,1072 567,1077 567,1075 550,1070 549,1069 566,1071 566,1070 551,1067 554,1065 538,1062 542,1061 544,1057 534,1055 535,1053 549,1056 547,1052 537,1047 539,1045 550,1050 554,1058 567,1060 565,1058 557,1056 553,1048 545,1040 541,1023 539,1022 536,996 538,976 536,958 547,957 545,953 539,957 533,957 529,944 522,935 515,929 513,924 514,907 518,895 526,890" /></g><g id="manhattan"><polygon fill="#F2EAD6" points="435,1187 444,1186 454,1189 458,1196 458,1203 455,1209 450,1212 436,1236 431,1241 427,1240 421,1237 420,1234 426,1199 425,1194 435,1187" /><polygon fill="#F2EAD6" points="344,1197 355,1200 353,1207 344,1205 343,1207 352,1210 349,1219 339,1215 341,1200 344,1197" /><polygon fill="#F2EAD6" points="496,744 496,749 491,812 481,859 478,853 479,836 483,786 485,777 486,746 494,725 498,735 496,744" /><polygon fill="#F2EAD6" points="488,577 495,581 515,582 526,590 527,602 523,619 521,641 523,650 521,658 513,671 500,670 486,674 477,664 479,641 483,630 490,628 486,624 481,605 475,599 473,578 481,575 488,577" /><polygon fill="#F2EAD6" points="296,267 307,264 310,264 315,275 318,276 325,276 326,272 319,268 319,267 326,266 330,272 335,263 349,260 355,260 360,265 364,275 366,289 365,299 360,304 364,309 362,318 361,333 357,334 352,331 353,336 360,341 357,348 359,351 359,367 360,408 363,420 366,458 371,469 387,491 405,520 418,543 427,563 434,570 454,580 467,593 473,607 474,618 468,631 465,642 467,662 466,673 461,684 460,691 462,697 480,714 480,722 476,756 476,767 473,795 468,820 468,831 466,840 463,878 461,899 462,906 468,921 476,934 469,935 472,941 484,955 495,960 499,968 512,1007 516,1025 519,1042 517,1049 507,1056 509,1057 488,1073 484,1071 469,1083 459,1093 453,1104 458,1109 457,1113 448,1113 438,1140 434,1144 432,1152 426,1151 423,1154 411,1150 407,1144 401,1144 398,1139 397,1130 394,1131 387,1111 391,1110 389,1104 385,1105 377,1083 389,1078 387,1072 380,1072 384,1070 376,1044 363,1049 363,1046 376,1042 371,1034 361,1038 358,1029 367,1025 349,986 342,988 343,983 348,977 338,980 347,975 345,970 334,972 334,970 342,967 342,960 331,963 330,961 337,958 336,956 328,958 328,956 336,954 335,951 327,953 326,953 334,949 333,946 325,949 328,946 328,940 324,919 324,903 322,898 314,898 314,894 322,894 322,884 324,870 314,868 327,869 327,864 315,864 315,862 327,862 327,857 313,857 313,855 327,855 328,850 314,850 314,848 327,848 327,843 313,843 314,842 324,842 323,838 314,837 314,836 323,836 323,794 325,793 322,772 320,649 321,625 319,589 322,550 316,549 315,530 316,525 321,525 321,498 320,488 317,476 314,462 312,441 305,432 302,430 298,421 295,418 293,413 300,402 302,393 301,379 301,350 301,333 300,320 294,304 292,280 296,267" /><polygon fill="#F2EAD6" points="363,241 366,255 364,259 352,255 334,257 340,241 340,236 347,233 358,237 363,241" /></g><g id="bronx"><polygon fill="#F2EAD6" points="595,529 604,528 618,532 638,528 670,534 677,542 673,555 659,565 620,576 611,568 604,569 597,560 590,542 595,529" /><polygon fill="#F2EAD6" points="557,530 566,534 564,544 558,546 559,544 557,539 555,539 557,538 554,533 557,530" /><polygon fill="#F2EAD6" points="779,140 780,137 778,136 773,141 773,141 778,136 777,135 780,132 777,133 776,129 772,133 774,130 772,130 774,127 769,124 767,124 768,120 763,121 763,121 768,120 767,119 762,118 763,118 767,118 768,116 769,110 769,109 772,107 777,113 777,115 779,116 783,121 784,125 787,122 789,122 786,125 787,126 797,130 799,129 803,127 806,126 805,128 803,130 804,131 807,130 806,133 811,136 812,136 814,133 818,134 819,135 816,139 820,134 820,136 816,139 817,140 820,137 821,140 820,144 821,144 825,141 820,146 822,149 820,150 821,152 825,148 825,149 821,152 823,153 824,157 824,159 828,163 835,156 834,157 830,162 832,164 835,163 835,162 838,160 834,165 837,168 838,169 840,172 841,176 841,180 843,180 842,183 840,184 843,187 842,189 839,187 838,189 833,187 832,187 830,186 828,183 827,181 823,181 821,182 818,179 819,179 816,177 815,175 813,176 813,175 807,170 805,172 804,170 805,169 803,167 796,163 794,160 791,160 790,156 789,154 788,151 790,145 787,142 785,139 787,138 782,139 787,137 785,137 782,139 783,135 782,136 779,140" /><polygon fill="#F2EAD6" points="848,87 848,97 854,103 858,118 866,127 853,122 849,112 838,104 821,72 825,69 854,80 848,87" /><polygon fill="#F2EAD6" points="402,63 454,56 450,47 454,47 454,39 450,29 455,20 456,16 452,17 450,13 452,4 455,5 458,0 457,17 467,16 467,11 480,11 488,10 492,16 503,9 511,19 520,26 524,35 535,47 547,43 595,37 592,37 590,31 609,29 665,18 703,11 703,26 707,43 708,53 702,61 705,74 702,81 695,75 695,81 704,87 695,93 694,90 682,89 690,92 693,95 700,95 704,100 709,96 711,101 714,101 713,66 720,56 720,49 716,38 712,37 711,32 717,16 719,13 723,18 720,22 723,23 735,17 742,17 744,26 743,38 745,46 751,44 753,46 753,36 755,39 759,40 763,46 758,57 754,56 747,61 742,71 748,90 756,96 758,102 753,106 755,119 760,124 753,130 751,143 757,145 761,156 759,162 761,169 755,169 751,164 736,155 732,149 734,145 720,128 717,123 713,122 711,125 716,131 708,132 709,135 694,129 685,130 682,128 679,134 679,144 690,142 697,147 708,165 696,174 699,183 712,194 714,205 719,202 729,204 724,208 729,210 728,215 720,213 719,216 726,220 727,223 734,230 733,241 747,260 754,266 767,274 770,273 767,282 772,292 775,292 775,288 779,288 784,277 792,276 797,283 803,289 808,295 819,299 821,296 842,296 844,298 839,302 839,310 837,317 831,323 831,318 820,313 813,311 816,315 821,317 825,323 833,325 839,329 849,329 855,326 880,326 883,322 890,329 890,335 883,340 871,335 863,337 845,334 839,340 825,336 819,333 811,332 805,335 796,336 789,339 777,351 768,360 763,367 757,371 752,376 750,383 751,389 761,403 752,407 740,408 733,401 719,391 715,384 715,380 711,372 704,364 705,355 704,355 697,342 695,342 675,325 670,314 672,296 664,285 659,276 654,276 660,282 669,297 670,301 667,311 668,321 674,328 691,342 697,349 700,358 696,364 698,367 699,381 702,398 702,405 700,407 692,401 682,400 678,399 675,404 686,402 690,404 695,420 702,423 705,427 709,429 707,434 687,447 685,445 680,446 671,442 669,437 663,430 659,434 646,438 635,443 621,435 611,432 594,435 595,439 614,438 624,444 642,460 643,464 642,486 639,493 630,495 630,497 622,499 619,494 613,497 603,507 600,508 589,504 584,501 582,503 568,502 560,507 556,506 554,510 549,515 549,518 539,527 535,538 534,562 529,577 521,580 494,579 487,575 479,573 468,579 464,580 461,575 457,576 446,568 437,564 430,556 421,538 415,526 396,494 376,465 370,449 370,431 365,407 364,394 365,380 365,362 365,342 368,329 369,304 372,286 370,274 364,259 366,255 363,241 358,237 347,233 340,236 340,241 334,252 334,257 328,261 320,261 305,256 298,259 298,252 292,216 282,172 276,149 272,137 274,136 269,117 263,99 260,94 260,82 290,79 310,75 402,63" /></g></g><g id="parks"><g id="q"><polygon fill="#A8D7B9" points="507,809 507,816 500,815 501,800 509,801 507,809" /><polygon fill="#A8D7B9" points="1377,1111 1398,1115 1406,1136 1401,1146 1396,1178 1391,1173 1367,1182 1371,1156 1362,1153 1377,1111" /><polygon fill="#A8D7B9" points="800,431 792,426 797,416 807,424 800,431" /><polygon fill="#A8D7B9" points="534,650 543,652 542,657 535,654 533,656 542,658 536,682 525,676 531,660 534,650" /><polygon fill="#A8D7B9" points="540,687 539,689 534,689 534,689 521,687 525,678 526,678 540,686 540,686 540,687" /><polygon fill="#A8D7B9" points="1268,1238 1267,1239 1273,1251 1269,1262 1267,1258 1263,1259 1261,1251 1268,1245 1264,1239 1268,1238" /><polygon fill="#A8D7B9" points="1198,841 1202,847 1206,842 1211,846 1208,860 1208,871 1191,867 1200,863 1195,853 1180,836 1186,823 1198,841" /><polygon fill="#A8D7B9" points="1211,900 1211,900 1209,897 1201,873 1205,872 1208,872 1209,872 1217,895 1212,899 1211,900" /><polygon fill="#A8D7B9" points="1313,879 1315,882 1308,885 1306,868 1302,869 1302,864 1310,862 1312,864 1312,873 1313,879" /><polygon fill="#A8D7B9" points="984,604 986,608 990,615 978,622 958,628 954,616 951,616 962,588 977,582 982,590 984,604" /><polygon fill="#A8D7B9" points="1000,585 1001,585 1010,580 1015,586 1016,592 1014,603 1005,606 991,615 988,607 985,596 1000,585" /><polygon fill="#A8D7B9" points="1187,440 1199,429 1204,438 1210,449 1211,454 1201,461 1195,467 1192,463 1189,466 1173,442 1176,439 1179,435 1187,440" /><polygon fill="#A8D7B9" points="1126,636 1125,637 1103,618 1109,611 1122,600 1135,607 1139,615 1139,620 1136,624 1126,636" /><polygon fill="#A8D7B9" points="1167,604 1153,610 1148,608 1136,607 1123,599 1134,590 1149,595 1165,599 1169,602 1167,604" /><polygon fill="#A8D7B9" points="1115,569 1109,566 1102,559 1098,552 1097,541 1098,538 1104,542 1112,545 1125,556 1115,569" /><polygon fill="#A8D7B9" points="1094,557 1094,556 1098,559 1106,565 1112,573 1103,584 1087,568 1080,561 1091,559 1094,557" /><polygon fill="#A8D7B9" points="1126,594 1122,597 1122,597 1114,592 1109,588 1104,584 1110,577 1114,573 1131,590 1126,594" /><polygon fill="#A8D7B9" points="1132,578 1133,578 1116,569 1116,569 1120,564 1126,557 1133,565 1136,568 1138,572 1132,578" /><polygon fill="#A8D7B9" points="1233,445 1238,438 1241,440 1248,447 1239,459 1240,460 1237,463 1221,447 1227,441 1233,445" /><polygon fill="#A8D7B9" points="858,997 851,1001 847,1011 840,1006 841,980 843,976 855,967 863,970 865,978 858,997" /><polygon fill="#A8D7B9" points="909,875 913,879 922,870 927,875 938,881 940,884 925,897 897,924 885,915 887,909 885,894 892,884 909,875" /><polygon fill="#A8D7B9" points="956,837 972,836 970,838 968,850 930,864 922,860 924,852 925,842 949,837 956,837" /><polygon fill="#A8D7B9" points="961,815 973,829 972,836 948,837 925,842 932,834 943,827 953,817 961,815" /><polygon fill="#A8D7B9" points="950,874 950,875 940,870 929,875 926,873 923,870 923,868 966,852 960,864 950,874" /><polygon fill="#A8D7B9" points="1215,776 1222,781 1232,781 1231,792 1224,794 1206,791 1211,782 1202,776 1207,768 1215,776" /><polygon fill="#A8D7B9" points="803,844 796,856 790,852 788,846 787,843 804,831 807,829 811,827 817,830 803,844" /><polygon fill="#A8D7B9" points="1250,808 1256,815 1261,820 1262,820 1260,820 1260,820 1257,821 1240,817 1246,813 1250,808" /><polygon fill="#A8D7B9" points="581,550 583,554 577,557 573,557 569,557 567,557 565,554 569,548 575,545 581,550" /><polygon fill="#A8D7B9" points="1326,1200 1328,1202 1333,1209 1321,1216 1317,1214 1319,1206 1320,1203 1326,1200" /><polygon fill="#A8D7B9" points="1366,1174 1363,1185 1351,1193 1348,1189 1336,1196 1334,1194 1352,1183 1362,1156 1367,1158 1366,1174" /><polygon fill="#A8D7B9" points="904,614 906,610 923,618 929,618 930,628 926,629 926,629 921,630 921,630 920,627 918,626 915,626 909,627 907,623 907,623 904,616 904,614" /><polygon fill="#A8D7B9" points="906,623 902,623 897,626 896,628 892,633 890,634 892,638 888,641 887,640 882,626 885,621 894,620 895,620 899,614 903,617 906,623" /><polygon fill="#A8D7B9" points="939,617 944,619 946,625 955,622 957,629 944,631 942,627 930,627 930,618 939,617" /><polygon fill="#A8D7B9" points="1331,1227 1333,1231 1330,1234 1335,1235 1335,1237 1323,1237 1316,1235 1317,1223 1328,1225 1331,1227" /><polygon fill="#A8D7B9" points="1266,1320 1262,1325 1247,1334 1246,1332 1254,1327 1266,1313 1269,1316 1269,1317 1266,1320 1266,1320" /><polygon fill="#A8D7B9" points="1370,825 1370,827 1368,828 1368,828 1370,828 1371,832 1372,842 1371,845 1370,852 1370,858 1371,861 1371,862 1368,863 1361,867 1361,859 1363,859 1358,851 1359,835 1361,835 1361,826 1366,824 1371,822 1370,825" /><polygon fill="#A8D7B9" points="1366,865 1369,867 1369,880 1372,887 1365,888 1359,888 1359,873 1362,872 1362,868 1366,865" /><polygon fill="#A8D7B9" points="1538,1111 1541,1115 1519,1126 1510,1140 1507,1150 1488,1163 1413,1232 1371,1272 1360,1254 1387,1228 1403,1208 1421,1193 1436,1182 1451,1175 1496,1144 1500,1136 1515,1121 1538,1111" /><polygon fill="#A8D7B9" points="1420,1144 1421,1146 1427,1137 1440,1142 1438,1146 1440,1154 1437,1151 1429,1153 1427,1156 1425,1153 1421,1153 1416,1145 1412,1134 1416,1133 1420,1144" /><polygon fill="#A8D7B9" points="1401,871 1416,882 1408,895 1406,898 1409,903 1413,912 1406,916 1402,913 1406,908 1404,907 1402,911 1396,904 1389,900 1387,894 1385,893 1381,889 1379,887 1399,876 1401,871" /><polygon fill="#A8D7B9" points="735,482 725,499 724,498 721,495 717,490 715,487 718,482 721,482 731,478 735,482" /><polygon fill="#A8D7B9" points="806,521 820,534 817,536 816,535 811,540 811,540 804,533 799,525 799,525 806,521" /><polygon fill="#A8D7B9" points="967,429 967,429 960,439 954,446 953,446 944,434 930,415 928,411 930,403 939,405 946,408 953,412 958,417 967,429" /><polygon fill="#A8D7B9" points="773,466 776,457 781,457 782,463 787,467 789,466 793,463 796,466 796,467 798,467 801,470 799,472 791,480 789,480 789,478 787,480 785,480 781,481 782,484 779,485 777,479 778,478 777,476 774,473 772,469 773,468 773,466" /><polygon fill="#A8D7B9" points="948,381 939,387 934,390 929,396 923,396 922,389 938,375 950,372 950,377 948,381" /><polygon fill="#A8D7B9" points="955,342 967,347 971,356 967,364 960,360 960,353 948,350 942,357 941,348 955,342" /><polygon fill="#A8D7B9" points="1041,419 1054,424 1042,435 1034,443 1030,438 1025,438 1032,431 1030,428 1040,419 1041,419" /><polygon fill="#A8D7B9" points="1032,413 1032,414 1036,416 1040,419 1029,429 1024,423 1023,422 1023,422 1025,420 1032,413" /><polygon fill="#A8D7B9" points="1086,358 1100,360 1099,363 1103,365 1099,369 1106,376 1109,376 1110,381 1112,378 1110,390 1108,387 1104,384 1106,381 1102,376 1096,372 1094,369 1096,368 1091,364 1089,366 1088,362 1086,362 1082,365 1080,365 1083,360 1079,356 1086,358" /><polygon fill="#A8D7B9" points="1219,503 1206,516 1203,515 1204,511 1205,508 1208,501 1210,499 1213,493 1216,495 1219,503" /><polygon fill="#A8D7B9" points="1338,898 1360,898 1378,903 1398,921 1361,913 1360,903 1341,902 1340,911 1321,908 1338,898" /><polygon fill="#A8D7B9" points="1386,895 1339,890 1322,894 1319,888 1327,886 1341,885 1361,889 1372,888 1378,886 1386,895" /><polygon fill="#A8D7B9" points="1396,908 1369,898 1356,896 1334,897 1324,900 1323,896 1339,893 1373,897 1389,900 1396,908" /><polygon fill="#A8D7B9" points="1377,918 1386,919 1394,921 1415,930 1416,936 1410,934 1401,927 1392,923 1376,920 1377,918" /><polygon fill="#A8D7B9" points="957,377 968,376 975,377 979,378 986,376 1006,387 1016,393 1042,413 1074,423 1080,425 1094,432 1089,437 1082,442 1073,432 1069,429 1066,426 1058,422 1049,420 1042,417 1035,413 1028,407 1021,401 1015,397 1010,394 1000,389 984,382 977,379 969,378 963,378 955,379 952,378 957,377 957,377" /><polygon fill="#A8D7B9" points="954,382 957,381 962,379 969,379 976,380 980,381 986,383 997,390 1013,397 1018,401 1027,408 1035,413 1038,416 1045,419 1051,423 1061,425 1065,426 1071,431 1075,435 1082,443 1082,445 1074,434 1062,426 1056,425 1040,419 1032,414 1028,410 1021,405 1022,405 1018,401 1012,397 1009,396 1004,395 1002,397 991,391 988,385 984,383 976,381 973,380 966,379 959,381 954,382" /><polygon fill="#A8D7B9" points="1286,1335 1251,1380 1249,1377 1259,1364 1258,1363 1264,1357 1267,1351 1268,1351 1282,1333 1286,1335" /><polygon fill="#A8D7B9" points="1398,1074 1381,1084 1362,1054 1374,1036 1398,1074" /><polygon fill="#A8D7B9" points="1405,1076 1424,1080 1422,1086 1419,1086 1412,1089 1407,1086 1408,1083 1405,1082 1402,1082 1399,1088 1393,1086 1383,1090 1384,1087 1405,1076" /><polygon fill="#A8D7B9" points="1226,1179 1231,1179 1232,1178 1234,1181 1241,1185 1244,1189 1246,1199 1242,1209 1227,1183 1226,1179" /><polygon fill="#A8D7B9" points="1160,471 1162,470 1167,471 1171,473 1180,474 1187,475 1191,477 1196,480 1200,482 1202,484 1205,488 1206,491 1206,493 1205,498 1202,505 1201,509 1200,513 1199,517 1198,517 1199,518 1197,519 1195,520 1191,523 1188,521 1185,515 1183,515 1183,515 1168,530 1163,531 1161,531 1150,525 1158,519 1163,514 1164,513 1173,511 1176,508 1176,507 1163,495 1167,490 1168,488 1168,487 1167,485 1154,474 1156,473 1160,471" /><polygon fill="#A8D7B9" points="1120,425 1122,426 1124,424 1132,429 1135,433 1139,436 1144,438 1156,445 1159,440 1156,448 1153,452 1150,453 1146,454 1142,455 1138,454 1132,452 1126,450 1120,450 1115,450 1106,451 1103,450 1104,449 1100,445 1113,432 1116,433 1119,429 1117,428 1120,425" /><polygon fill="#A8D7B9" points="1107,414 1116,412 1117,415 1124,416 1117,425 1098,445 1092,439 1099,430 1106,414 1107,414" /><polygon fill="#A8D7B9" points="1083,415 1088,413 1099,418 1097,421 1099,423 1094,432 1074,423 1070,421 1075,410 1083,415" /><polygon fill="#A8D7B9" points="1107,452 1111,451 1116,451 1118,451 1120,451 1124,451 1125,451 1129,452 1131,453 1133,454 1137,455 1140,457 1144,459 1146,460 1148,461 1150,463 1151,464 1148,472 1148,473 1147,472 1142,467 1142,466 1141,465 1138,461 1125,454 1124,455 1120,452 1115,452 1115,453 1114,454 1114,458 1114,458 1114,459 1113,459 1110,459 1108,461 1107,462 1107,464 1106,464 1105,464 1101,460 1100,459 1099,459 1095,459 1095,458 1099,455 1102,453 1104,453 1107,452" /><polygon fill="#A8D7B9" points="1101,461 1104,464 1100,468 1099,472 1096,478 1098,480 1107,486 1110,487 1107,491 1103,488 1102,489 1094,486 1091,478 1084,471 1091,467 1090,464 1095,460 1101,461" /><polygon fill="#A8D7B9" points="984,754 989,751 1000,745 1008,747 1013,746 998,752 993,755 985,762 979,757 984,754" /><polygon fill="#A8D7B9" points="1086,687 1063,713 1042,730 1014,746 1013,744 1043,728 1056,718 1068,706 1083,685 1086,687" /><polygon fill="#A8D7B9" points="1023,1041 1019,1052 1017,1053 1018,1056 1013,1073 1010,1073 997,1065 1004,1055 1022,1040 1023,1041" /><polygon fill="#A8D7B9" points="960,736 968,742 956,745 958,756 967,761 952,759 938,752 931,745 929,735 935,727 960,736" /><polygon fill="#A8D7B9" points="927,730 914,733 907,729 892,723 880,714 872,702 871,690 876,682 882,678 887,678 895,688 905,701 929,722 927,730" /><polygon fill="#A8D7B9" points="826,665 844,676 853,684 858,689 859,691 859,698 849,699 825,678 818,675 826,665" /><polygon fill="#A8D7B9" points="835,650 828,661 828,661 827,662 827,662 817,655 819,654 826,651 837,649 835,650" /><polygon fill="#A8D7B9" points="859,623 864,626 871,632 881,625 885,636 884,649 885,659 883,663 877,669 874,680 869,687 860,686 856,683 843,673 828,663 848,634 853,630 853,627 859,623" /><polygon fill="#A8D7B9" points="827,650 826,651 819,653 828,642 838,630 841,632 830,646 830,647 828,649 827,650" /><polygon fill="#A8D7B9" points="824,644 817,653 814,649 811,641 809,632 814,625 820,615 837,629 824,644" /><polygon fill="#A8D7B9" points="805,630 801,631 793,617 810,600 817,588 823,593 818,600 818,606 811,624 805,630" /><polygon fill="#A8D7B9" points="1284,1334 1281,1332 1285,1329 1287,1330 1288,1329 1286,1327 1298,1312 1300,1315 1299,1312 1309,1301 1316,1291 1319,1293 1322,1290 1319,1288 1332,1275 1338,1265 1355,1253 1355,1254 1359,1254 1371,1272 1340,1305 1301,1347 1284,1334" /><polygon fill="#A8D7B9" points="1256,1400 1215,1449 1205,1442 1239,1392 1241,1389 1245,1383 1249,1377 1265,1390 1262,1393 1256,1400" /><polygon fill="#A8D7B9" points="970,760 976,760 979,757 981,760 985,762 980,768 976,772 971,770 970,760 970,760" /><polygon fill="#A8D7B9" points="938,752 954,760 967,761 970,768 946,761 939,755 931,750 920,741 922,738 938,752" /><polygon fill="#A8D7B9" points="872,705 892,723 907,729 922,738 919,741 910,734 890,726 878,716 865,703 872,705" /><polygon fill="#A8D7B9" points="751,616 754,611 760,611 762,606 793,617 801,632 791,630 782,631 771,629 756,620 737,611 738,611 751,616" /><polyline fill="none" points="586,1162 583,1159 580,1155 572,1144 571,1143 570,1143 559,1144 558,1143 556,1143 546,1135" stroke="#FCCC0A" stroke-width="3" /><polyline fill="none" points="561,804 562,802 562,800 562,795 564,745 566,713 566,711 567,708 569,696 576,667" stroke="#FCCC0A" stroke-width="3" /><polyline fill="none" points="834,1598 836,1596 840,1594 854,1588 859,1584 877,1567 878,1566 878,1565 878,1527 877,1524 877,1521 872,1513 871,1510 866,1504 810,1430 758,1360 752,1353 721,1312 712,1301 710,1296 708,1293 700,1263 696,1248 694,1246 692,1242 683,1229 680,1226 675,1219 671,1216 611,1178 586,1162 586,1162" stroke="#FCCC0A" stroke-width="3" /><polyline fill="none" points="546,1135 522,1115 453,1060 447,1058 445,1057 437,1058 434,1057 424,1055 422,1053 422,1051 426,986 425,983 417,959 413,948 407,934 391,890 386,873 385,864 385,821 386,819 388,818 405,818 411,814 465,815 515,816 535,816 541,818 550,817 557,818 559,815 561,804" stroke="#FCCC0A" stroke-width="3" /><polyline fill="none" points="813,1605 814,1608 816,1609 816,1609 819,1609 826,1607 828,1606 829,1604 830,1604 834,1598" stroke="#FCCC0A" stroke-width="3" /></g><g id="x"><polygon fill="#A8D7B9" points="502,275 510,267 520,270 542,304 545,313 539,326 528,320 503,315 499,310 489,275 502,275" /><polygon fill="#A8D7B9" points="507,268 504,272 498,273 488,271 487,271 485,269 484,267 480,259 479,256 477,255 470,253 461,249 459,246 458,245 459,242 462,236 463,234 466,230 468,224 468,221 469,220 470,219 473,217 478,219 481,222 483,222 488,221 490,221 494,222 497,227 502,236 509,252 509,255 509,258 509,264 508,266 507,268" /><polygon fill="#A8D7B9" points="520,261 521,258 523,257 523,260 539,276 540,278 541,286 541,289 545,293 547,307 546,312 542,302 539,296 531,282 528,277 523,270 521,267 520,261" /><polygon fill="#A8D7B9" points="485,208 489,214 493,220 487,221 482,221 482,220 478,219 473,216 473,216 469,217 468,219 466,222 467,224 465,224 469,215 471,210 471,208 471,201 481,198 481,201 485,208" /><polygon fill="#A8D7B9" points="514,252 516,255 512,254 510,253 508,250 505,239 500,229 495,221 497,222 500,222 502,225 509,239 514,252" /><polygon fill="#A8D7B9" points="482,197 486,196 494,212 499,221 499,221 498,221 496,220 496,220 497,219 497,219 496,218 495,217 495,217 494,218 493,218 493,218 494,219 491,217 490,215 488,211 486,207 485,205 484,203 483,199 482,197" /><polygon fill="#A8D7B9" points="426,502 426,502 422,500 421,497 420,480 424,480 424,486 427,493 427,497 426,502" /><polygon fill="#A8D7B9" points="413,207 412,219 403,219 403,207 413,207" /><polygon fill="#A8D7B9" points="453,188 450,190 450,190 448,190 446,190 445,188 444,186 445,185 445,183 446,178 447,177 447,175 449,174 451,175 453,175 453,175 455,176 456,178 456,178 456,181 455,186 453,188 453,188" /><polygon fill="#A8D7B9" points="299,165 297,166 293,164 292,162 289,160 289,155 285,156 282,148 289,147 289,147 291,149 294,148 296,156 299,165" /><polygon fill="#A8D7B9" points="503,524 503,524 496,526 493,526 492,524 491,524 486,525 484,507 492,506 494,507 497,510 499,517 500,516 503,524" /><polygon fill="#A8D7B9" points="409,475 412,474 412,483 409,483 399,483 397,482 398,480 396,478 400,473 409,475" /><polygon fill="#A8D7B9" points="411,464 412,472 406,472 401,471 401,471 402,468 402,461 403,460 410,459 411,464" /><polygon fill="#A8D7B9" points="820,309 822,310 822,311 825,314 829,315 824,323 820,322 822,320 821,318 820,321 816,318 815,318 814,316 814,316 812,315 811,314 810,314 809,312 810,312 813,307 817,307 818,309 819,309 820,309" /><polygon fill="#A8D7B9" points="553,65 563,74 564,80 557,80 555,82 546,79 542,79 538,76 549,69 553,65" /><polygon fill="#A8D7B9" points="501,362 509,357 509,363 505,363 502,374 494,379 491,387 481,386 479,359 501,362" /><polygon fill="#A8D7B9" points="479,386 479,386 472,386 468,357 473,358 478,358 478,364 479,375 479,382 479,386" /><polygon fill="#A8D7B9" points="486,395 473,398 471,387 478,387 480,388 481,390 482,392 483,392 486,395 486,395" /><polygon fill="#A8D7B9" points="446,403 443,405 441,398 431,384 430,383 444,376 447,383 448,390 447,396 446,403" /><polygon fill="#A8D7B9" points="672,391 680,402 688,402 701,414 712,431 710,437 702,425 701,426 691,415 691,411 687,408 678,416 674,409 662,407 664,405 659,401 672,391" /><polygon fill="#A8D7B9" points="613,421 618,426 621,427 633,426 649,428 655,430 656,434 660,431 664,432 668,436 675,446 678,447 686,442 689,448 696,444 698,448 685,461 675,460 666,447 656,455 616,432 606,435 588,437 582,436 576,433 578,429 603,408 613,421" /><polygon fill="#A8D7B9" points="277,151 285,184 292,223 286,219 277,220 270,188 281,185 280,176 273,149 277,151" /><polygon fill="#A8D7B9" points="280,139 286,165 289,175 290,182 287,184 284,173 278,148 276,138 280,137 280,139" /><polygon fill="#A8D7B9" points="293,199 295,210 299,216 302,222 294,222 292,206 287,187 291,185 292,193 293,199" /><polygon fill="#A8D7B9" points="738,325 759,340 747,357 764,369 768,397 762,403 729,379 719,357 738,325" /><polygon fill="#A8D7B9" points="706,371 718,366 720,378 732,383 761,404 757,408 735,414 728,412 710,391 706,371" /><polygon fill="#A8D7B9" points="480,197 481,198 471,201 472,198 472,182 473,180 472,173 473,176 478,190 480,197" /><polygon fill="#A8D7B9" points="473,166 473,166 472,166 472,166 472,164 472,163 470,158 470,156 469,153 468,149 466,140 465,135 464,131 462,124 462,118 461,115 461,111 459,108 458,102 458,100 459,98 458,96 458,94 459,92 460,90 460,90 460,90 460,91 460,91 461,92 462,93 463,97 463,100 466,131 467,132 467,132 468,133 468,135 468,136 469,136 474,162 474,163 474,165 473,166" /><polygon fill="#A8D7B9" points="533,365 539,365 540,372 538,390 536,381 537,380 536,379 535,380 535,383 533,383 534,381 533,377 533,365" /><polygon fill="#A8D7B9" points="359,103 358,111 356,114 351,118 345,121 343,120 337,118 335,116 332,109 313,76 352,71 353,77 356,86 359,103" /><polygon fill="#A8D7B9" points="390,146 390,143 389,138 388,133 387,126 386,122 386,118 385,115 383,112 380,110 377,107 376,105 373,105 371,105 368,104 365,103 363,102 364,97 363,94 363,91 363,89 362,87 359,84 356,81 354,77 354,74 353,71 382,67 393,95 392,96 392,100 392,101 392,104 394,107 396,109 396,113 395,121 393,131 392,141 390,146" /><polygon fill="#A8D7B9" points="420,75 416,81 413,86 411,90 409,96 408,99 409,105 409,108 401,113 398,101 397,97 385,66 422,61 422,63 422,65 421,69 420,75" /><polygon fill="#A8D7B9" points="375,106 377,108 379,109 382,113 384,116 385,118 385,121 386,125 388,140 388,142 388,145 388,150 387,153 387,154 384,156 380,161 379,164 376,167 374,170 372,175 370,178 369,181 361,183 361,183 360,182 360,180 357,165 357,162 356,159 356,156 356,154 354,149 353,147 348,141 340,128 340,127 340,126 341,125 341,124 343,122 349,120 354,117 357,115 363,107 364,106 367,104 371,105 372,105 375,106" /><polygon fill="#A8D7B9" points="413,131 424,141 426,143 426,168 421,167 415,170 405,170 400,163 393,154 392,149 394,138 396,126 397,121 399,116 402,115 405,123 406,126 413,131" /><polygon fill="#A8D7B9" points="403,171 403,173 377,179 378,175 378,173 377,168 378,166 381,163 386,158 390,154 391,153 393,155 394,158 395,160 402,167 403,169 403,170 403,171" /><polygon fill="#A8D7B9" points="641,25 653,22 652,23 651,23 651,24 650,24 649,25 648,25 647,26 646,25 644,26 643,26 642,26 641,27 638,27 637,28 636,28 634,29 633,30 632,30 631,31 630,32 628,33 627,33 625,36 625,35 624,33 623,32 623,31 622,29 621,29 621,28 620,26 625,25 626,27 641,25" /><polygon fill="#A8D7B9" points="646,94 643,90 641,89 639,85 638,81 632,61 630,51 629,47 628,39 629,36 630,34 631,34 634,32 637,31 642,30 645,29 650,27 653,26 657,23 659,22 662,21 664,47 664,47 668,101 666,101 663,100 659,100 657,99 653,99 651,98 648,95 646,94" /><polygon fill="#A8D7B9" points="624,37 625,37 629,48 637,82 638,86 645,99 643,103 647,109 649,113 640,112 631,98 623,72 619,60 622,55 625,50 625,48 619,45 617,48 615,47 624,37" /><polygon fill="#A8D7B9" points="698,19 699,20 699,21 699,22 699,23 699,24 699,24 699,25 699,27 699,27 699,28 699,28 700,28 700,28 700,28 701,30 702,30 702,31 702,31 703,31 703,31 703,32 704,33 703,34 703,35 703,35 703,35 704,35 703,36 703,40 703,40 704,41 704,41 703,43 703,43 702,43 703,44 703,44 703,44 702,45 702,45 702,46 701,47 697,53 696,54 693,57 693,57 692,59 690,60 690,62 690,62 686,68 683,73 683,73 683,73 682,75 681,75 681,75 680,76 680,76 680,76 680,76 679,78 678,78 677,79 678,79 677,80 677,80 676,80 677,81 676,82 676,82 676,83 676,83 675,83 676,84 676,85 676,96 677,100 677,100 676,100 676,100 676,100 676,100 675,101 675,101 671,100 671,100 671,96 670,96 664,21 699,15 699,16 698,17 699,18 699,19 698,19" /><polygon fill="#A8D7B9" points="722,121 721,121 720,121 719,121 719,121 718,120 717,121 717,121 717,121 716,120 715,121 713,120 712,121 712,120 711,121 710,121 710,120 709,121 707,122 705,122 704,122 703,122 701,123 699,122 699,123 697,124 696,123 694,124 692,124 692,125 690,124 689,124 687,125 686,124 683,124 683,125 682,124 681,125 681,124 681,124 680,123 681,121 680,116 679,112 678,109 679,108 678,107 679,106 679,105 679,105 679,105 679,105 679,104 680,104 680,104 681,103 681,103 681,103 682,103 682,103 682,103 682,103 682,101 682,101 682,101 682,100 682,100 681,99 681,99 681,99 681,99 681,99 681,99 680,98 679,98 679,98 679,98 678,99 678,98 678,98 678,98 677,97 676,97 676,97 676,97 677,96 676,95 676,85 676,83 676,83 677,81 677,81 678,81 678,79 678,79 679,79 679,78 679,78 680,77 681,77 681,75 682,75 682,75 683,74 683,73 684,73 686,68 690,62 691,61 691,60 693,57 696,55 697,53 698,51 699,51 700,50 700,49 703,46 702,45 703,45 703,45 704,43 704,41 704,41 704,36 704,35 704,35 704,34 704,34 704,33 704,33 703,32 703,32 703,31 702,31 702,30 702,30 701,28 700,27 700,27 700,26 700,26 699,19 699,19 699,18 699,16 699,15 716,12 724,12 737,4 748,5 773,49 761,114 762,123 761,124 759,124 757,125 756,125 754,124 753,125 751,125 751,125 750,124 747,124 747,125 745,124 744,125 743,125 742,124 739,124 738,124 736,124 734,124 733,123 733,123 732,124 732,123 731,123 730,122 730,122 730,122 730,122 729,121 729,121 729,120 729,120 729,120 728,119 728,119 728,119 727,119 726,119 726,119 726,119 725,120 725,120 724,120 724,120 724,120 724,120 724,120 724,120 724,120 723,121 723,121 723,121 722,121" /><polygon fill="#A8D7B9" points="652,101 669,102 670,119 670,129 667,121 652,113 649,113 649,104 652,101" /><polygon fill="#A8D7B9" points="677,105 679,126 679,131 672,129 673,127 671,108 672,108 672,101 674,101 677,105" /><polygon fill="#A8D7B9" points="691,125 691,125 692,125 693,125 694,124 695,124 696,124 698,123 700,123 700,123 701,123 703,123 705,123 707,122 708,122 709,122 710,121 712,121 712,121 712,121 714,121 715,121 716,121 716,121 717,121 718,121 720,122 720,121 722,121 722,121 722,122 722,122 722,122 722,122 723,123 723,123 723,124 724,125 725,124 725,124 725,125 725,125 726,126 726,126 726,126 727,125 727,125 728,125 728,125 729,124 729,124 730,124 730,124 730,124 730,124 731,123 731,123 732,124 734,124 735,124 737,124 738,125 739,125 740,125 741,125 742,125 743,125 744,125 746,125 747,125 748,125 748,125 749,126 750,125 752,126 752,125 752,125 754,125 755,125 756,125 757,125 757,125 758,124 759,125 760,124 762,124 769,179 759,179 696,135 680,131 680,130 680,128 680,127 681,126 681,126 681,126 682,125 682,125 683,125 683,125 685,125 691,125" /><polygon fill="#A8D7B9" points="679,144 679,150 675,162 668,172 664,173 655,172 653,171 668,149 670,142 679,144" /><polygon fill="#A8D7B9" points="711,187 709,195 698,204 696,202 686,222 678,216 672,206 669,186 675,174 680,151 680,143 690,142 696,147 712,170 705,179 711,187" /><polygon fill="#A8D7B9" points="674,175 672,179 667,187 665,186 663,183 664,181 661,179 672,171 676,170 674,175" /><polygon fill="#A8D7B9" points="568,536 564,545 554,545 553,539 553,532 556,528 563,528 566,529 568,534 568,536" /></g><g id="b"><polygon fill="#A8D7B9" points="761,1632 759,1632 754,1626 752,1624 744,1623 770,1618 776,1617 771,1621 773,1623 761,1632" /><polygon fill="#A8D7B9" points="526,1253 527,1259 524,1260 519,1261 520,1269 512,1270 511,1263 508,1259 507,1257 526,1253" /><polygon fill="#A8D7B9" points="775,1595 776,1601 777,1607 757,1611 757,1610 757,1609 768,1589 771,1590 774,1591 775,1595" /><polygon fill="#A8D7B9" points="758,1585 768,1589 757,1609 757,1611 739,1615 736,1610 753,1582 758,1585" /><polygon fill="#A8D7B9" points="687,1285 681,1294 675,1287 675,1286 676,1286 675,1284 674,1283 685,1267 695,1273 687,1285" /><polygon fill="#A8D7B9" points="633,1523 630,1542 628,1548 624,1549 618,1550 605,1548 601,1546 593,1506 635,1513 633,1523" /><polygon fill="#A8D7B9" points="628,1549 632,1543 637,1544 635,1555 632,1559 625,1563 624,1556 615,1554 615,1550 620,1551 628,1549" /><polygon fill="#A8D7B9" points="645,1186 648,1186 650,1195 661,1192 675,1210 674,1217 656,1204 640,1196 646,1194 645,1186" /><polygon fill="#A8D7B9" points="590,1350 588,1359 569,1356 571,1347 590,1350" /><polygon fill="#A8D7B9" points="877,985 865,1005 864,1004 863,1007 863,1009 856,1004 859,993 861,990 865,978 877,985" /><polygon fill="#A8D7B9" points="942,1529 946,1535 946,1536 947,1538 944,1541 945,1543 935,1549 926,1555 919,1546 942,1529" /><polygon fill="#A8D7B9" points="903,1279 902,1272 905,1272 905,1272 953,1274 969,1274 964,1288 963,1288 941,1280 903,1279" /><polygon fill="#A8D7B9" points="954,1269 954,1270 898,1269 901,1262 954,1263 954,1269" /><polygon fill="#A8D7B9" points="570,1114 579,1127 571,1131 567,1133 562,1126 562,1126 562,1126 562,1126 557,1119 570,1114" /><polygon fill="#A8D7B9" points="1008,1043 1011,1047 1004,1055 997,1065 1010,1073 1007,1075 1000,1074 982,1062 1006,1042 1008,1043" /><polygon fill="#A8D7B9" points="634,1193 655,1206 674,1218 674,1224 693,1250 694,1253 674,1282 671,1283 651,1261 648,1259 647,1258 627,1257 625,1255 628,1202 629,1194 632,1191 634,1193" /><polygon fill="#A8D7B9" points="514,1434 516,1439 499,1442 500,1436 502,1432 504,1430 508,1428 511,1427 516,1427 514,1434" /><polygon fill="#A8D7B9" points="564,1558 565,1562 547,1555 541,1551 538,1547 523,1528 517,1520 509,1501 505,1489 498,1447 502,1453 501,1462 502,1464 507,1469 508,1476 506,1490 506,1492 510,1497 512,1506 518,1518 524,1524 526,1529 528,1533 532,1537 541,1543 545,1545 554,1553 564,1558" /><polygon fill="#A8D7B9" points="505,1495 513,1512 526,1534 538,1549 548,1557 564,1564 566,1569 559,1562 550,1559 540,1552 523,1533 513,1517 508,1503 503,1488 496,1447 497,1453 502,1477 505,1495" /><polygon fill="#A8D7B9" points="778,1151 778,1151 777,1152 777,1152 777,1151 770,1137 778,1133 783,1144 778,1151 778,1151" /><polygon fill="#A8D7B9" points="901,1565 905,1572 890,1582 892,1586 864,1615 847,1634 786,1668 764,1672 756,1663 776,1657 796,1645 861,1591 901,1565" /><polygon fill="#A8D7B9" points="1010,1343 1007,1344 1002,1323 987,1296 980,1287 977,1274 978,1275 1004,1324 1010,1343" /><polygon fill="#A8D7B9" points="569,1569 573,1570 575,1571 583,1575 592,1577 597,1577 600,1576 606,1573 616,1566 623,1564 632,1563 634,1565 636,1566 638,1565 643,1562 656,1560 667,1559 672,1560 692,1564 699,1564 699,1568 691,1565 673,1562 663,1560 654,1561 647,1562 642,1564 638,1566 635,1568 632,1566 626,1567 597,1577 591,1577 585,1576 576,1573 574,1571 570,1571 569,1569" /><polygon fill="#A8D7B9" points="979,1284 990,1304 997,1317 1002,1329 1005,1341 999,1325 995,1315 983,1294 974,1288 973,1274 975,1274 979,1284" /><polygon fill="#A8D7B9" points="1001,1384 998,1389 991,1392 982,1391 995,1388 1003,1375 1007,1365 1008,1357 1011,1354 1011,1358 1009,1368 1007,1373 1001,1384" /><polygon fill="#A8D7B9" points="984,1222 986,1226 977,1254 975,1261 975,1271 973,1271 972,1259 983,1231 983,1225 984,1222" /><polygon fill="#A8D7B9" points="1013,1402 1014,1404 1011,1402 1008,1399 1003,1389 1002,1385 1003,1382 1008,1374 1011,1367 1012,1359 1011,1354 1012,1353 1014,1361 1013,1365 1011,1372 1004,1384 1013,1402" /><polygon fill="#A8D7B9" points="1021,1055 1017,1068 1011,1083 1003,1095 1012,1074 1019,1057 1022,1045 1029,1025 1021,1055" /><polygon fill="#A8D7B9" points="539,957 541,955 544,952 547,953 550,958 548,963 536,961 534,958 537,954 539,957" /><polygon fill="#A8D7B9" points="1003,1375 995,1388 984,1391 988,1381 980,1379 981,1375 1007,1354 1008,1360 1006,1369 1003,1375" /><polygon fill="#A8D7B9" points="934,1150 939,1154 942,1152 946,1152 961,1156 961,1153 989,1164 987,1168 992,1170 993,1175 968,1166 967,1169 964,1166 962,1168 941,1160 941,1157 930,1153 930,1149 934,1150" /><polygon fill="#A8D7B9" points="973,1237 975,1239 983,1231 972,1259 973,1271 954,1270 955,1259 966,1227 973,1227 973,1237" /><polygon fill="#A8D7B9" points="993,1200 993,1201 978,1196 987,1173 993,1175 993,1181 995,1187 994,1190 993,1197 993,1200" /><polygon fill="#A8D7B9" points="987,1120 993,1114 999,1096 1002,1096 993,1119 991,1128 953,1106 956,1101 965,1112 979,1119 987,1120" /><polygon fill="#A8D7B9" points="1014,1405 1010,1414 1014,1423 1016,1431 1015,1441 1011,1450 1006,1459 993,1472 981,1479 968,1484 953,1493 957,1489 979,1479 992,1472 999,1467 1008,1454 1013,1443 1015,1427 1012,1421 1005,1411 1008,1405 1014,1405" /><polygon fill="#A8D7B9" points="931,1378 937,1375 986,1394 1011,1423 1011,1445 1003,1459 994,1458 931,1435 934,1428 905,1418 917,1387 927,1390 931,1378" /><polygon fill="#A8D7B9" points="881,1395 891,1398 891,1395 910,1402 902,1421 881,1412 881,1410 879,1409 876,1408 881,1395" /><polygon fill="#A8D7B9" points="1006,1346 991,1328 981,1325 987,1305 982,1296 964,1288 969,1274 983,1294 999,1325 1006,1346" /><polyline fill="none" points="874,1570 878,1566 878,1565 878,1527 877,1524 877,1521 872,1513 871,1510 866,1504 818,1439 812,1432 810,1430 758,1360 752,1353 721,1312 712,1301 710,1296 708,1293 700,1263 696,1248 694,1246 692,1242 683,1229 680,1226 675,1219 671,1216 622,1184" stroke="#FF6319" stroke-width="3" /><polyline fill="none" points="539,1128 523,1114 454,1060 451,1054 447,1027 445,1020 440,1017 419,1020 401,1019 397,1014 396,1004 396,844 391,839" stroke="#FF6319" stroke-width="3" /><polyline fill="none" points="377,838 374,838 373,834 373,642 373,604 372,601 367,593 367,587 369,576 368,564 362,524 361,517" stroke="#FF6319" stroke-width="3" /><polyline fill="none" points="361,517 361,504 361,493 364,488 368,485 391,473 396,471 405,472 418,471 423,469 424,465 422,451 421,435 424,412 424,397 420,381 420,375 424,357 425,351 426,318 425,296 423,276 424,243 425,238 429,225 430,217" stroke="#FF6319" stroke-width="3" /><polyline fill="none" points="391,839 391,839 385,839 385,839 377,838 377,838" stroke="#FF6319" stroke-width="3" /><polyline fill="none" points="622,1184 611,1178 586,1162 583,1159 572,1144 570,1143 559,1144 556,1143 547,1135 539,1128" stroke="#FF6319" stroke-width="3" /></g><g id="m"><polygon fill="#A8D7B9" points="476,713 474,710 477,710 480,714 480,719 480,725 480,731 475,732 475,712 476,713" /><polygon fill="#A8D7B9" points="327,775 327,781 328,788 325,790 324,817 314,817 315,806 314,781 315,774 327,775" /><polygon fill="#A8D7B9" points="359,350 358,350 354,344 356,342 354,339 350,336 350,330 356,334 362,334 359,350" /><polygon fill="#A8D7B9" points="368,576 368,580 365,580 365,565 364,562 360,558 360,555 362,549 362,543 361,541 358,538 358,536 363,536 368,567 368,576" /><polygon fill="#A8D7B9" points="372,755 362,755 362,743 372,743 372,755" /><polygon fill="#A8D7B9" points="404,606 404,594 416,594 416,607 404,606" /><polygon fill="#A8D7B9" points="331,519 330,530 328,537 329,547 328,555 325,555 329,515 329,511 325,496 328,501 330,508 331,519" /><polygon fill="#A8D7B9" points="465,636 464,638 456,638 455,628 468,628 467,631 465,634 466,635 465,636 465,636" /><polygon fill="#A8D7B9" points="322,350 322,351 320,352 319,353 320,365 318,365 318,365 318,362 317,362 317,361 315,361 314,358 315,357 316,356 312,356 311,357 309,361 307,362 309,357 309,355 308,350 307,340 307,338 305,330 304,325 304,323 306,321 306,321 308,321 312,322 314,322 319,321 319,322 317,325 317,329 317,331 317,333 319,337 320,340 320,346 322,350" /><polygon fill="#A8D7B9" points="516,1051 511,1056 509,1052 514,1040 510,1012 502,993 501,975 511,1003 519,1041 516,1051" /><polygon fill="#A8D7B9" points="324,576 326,577 325,580 326,582 324,584 324,586 325,589 325,596 325,596 325,598 325,598 327,602 329,605 329,608 330,619 329,622 329,624 328,626 329,630 329,634 330,642 330,645 330,648 330,662 330,665 329,669 328,670 328,676 328,678 328,680 329,681 330,684 331,686 331,688 330,690 328,690 327,689 327,688 326,685 326,683 326,679 325,679 325,678 323,677 323,675 322,671 322,667 322,662 322,655 323,647 322,634 323,629 322,615 322,608 323,600 323,596 323,590 323,586 322,583 323,580 324,577 324,576" /><polygon fill="#A8D7B9" points="322,678 322,681 325,688 325,694 322,700 322,722 323,734 326,746 326,770 322,774 321,756 317,756 317,743 322,742 321,694 319,695 319,686 321,687 320,646 320,626 320,590 320,601 321,634 321,660 322,678" /><polygon fill="#A8D7B9" points="328,700 330,707 330,710 327,717 327,728 332,740 332,748 327,744 325,738 324,730 323,718 324,702 325,701 327,695 328,700" /><polygon fill="#A8D7B9" points="325,494 327,507 328,511 328,514 325,522 322,522 321,508 321,488 323,487 325,494" /><polygon fill="#A8D7B9" points="366,632 366,641 362,641 357,624 357,610 356,603 354,597 360,597 360,620 366,632" /><polygon fill="#A8D7B9" points="485,630 480,638 480,661 498,661 519,674 489,678 474,673 477,643 480,628 485,630" /><polygon fill="#A8D7B9" points="498,627 508,644 529,654 520,673 501,661 497,654 509,655 508,646 496,642 498,627" /><polygon fill="#A8D7B9" points="496,627 487,630 483,630 483,619 470,591 486,594 492,592 497,596 497,610 496,627" /><polygon fill="#A8D7B9" points="524,581 530,579 528,591 529,595 529,608 509,608 505,611 508,591 511,581 524,581" /><polygon fill="#A8D7B9" points="492,579 496,580 499,580 499,587 498,588 495,589 491,589 488,588 483,589 478,588 476,589 470,589 469,586 472,585 472,580 472,578 476,575 484,576 486,576 489,576 492,579" /><polygon fill="#A8D7B9" points="504,613 503,627 498,627 500,612 504,592 501,587 501,580 510,581 507,592 504,613" /><polygon fill="#A8D7B9" points="330,289 317,306 314,316 300,311 297,278 298,268 310,263 318,266 334,265 325,282 330,289" /><polygon fill="#A8D7B9" points="300,311 296,310 292,280 295,271 296,271 295,274 295,278 296,294 298,299 300,311" /><polygon fill="#A8D7B9" points="360,399 357,405 358,397 357,358 355,348 350,340 352,340 360,351 359,369 360,399" /><polygon fill="#A8D7B9" points="383,1080 381,1085 385,1105 392,1102 395,1110 388,1111 395,1130 399,1131 402,1145 397,1141 389,1116 376,1082 383,1080" /><polygon fill="#A8D7B9" points="410,1141 416,1137 416,1138 419,1142 421,1145 422,1145 425,1149 425,1151 422,1151 423,1154 417,1152 413,1150 409,1148 408,1147 407,1144 409,1143 409,1141 410,1141" /><polygon fill="#A8D7B9" points="296,312 296,310 300,311 301,326 302,347 302,360 301,382 302,394 301,407 301,423 310,437 315,446 317,455 318,477 311,446 300,426 294,418 294,414 301,360 296,312" /><polygon fill="#A8D7B9" points="304,408 305,409 303,410 302,411 302,408 304,401 304,397 304,393 304,384 303,377 304,369 304,364 305,357 305,353 303,346 304,341 303,336 303,329 302,326 303,324 304,333 305,339 305,340 305,350 308,354 308,357 306,361 305,366 306,367 305,384 305,386 305,391 306,398 304,403 304,408" /><polygon fill="#A8D7B9" points="319,469 317,465 317,455 317,452 317,449 316,445 314,441 312,439 311,436 310,434 306,429 304,425 302,422 302,420 301,416 301,408 301,405 301,403 302,400 303,396 303,393 302,386 302,381 303,371 303,365 303,358 303,351 303,346 304,338 303,334 304,338 303,346 303,346 304,352 304,356 304,363 303,368 303,377 303,385 304,392 304,395 304,399 303,404 302,408 301,411 301,414 301,416 303,419 305,423 312,437 314,439 315,444 317,448 318,452 318,454 319,457 319,460 318,464 319,469" /><polygon fill="#A8D7B9" points="320,484 321,487 309,486 308,483 307,482 307,478 307,478 306,477 318,477 320,484" /><polygon fill="#A8D7B9" points="375,642 407,642 409,644 408,814 407,814 406,817 375,817 373,814 373,644 375,642" /><polygon fill="#A8D7B9" points="350,408 355,407 358,406 358,410 360,422 374,416 375,417 360,422 363,445 364,457 362,463 360,471 359,474 361,481 360,484 360,486 358,481 358,475 360,469 359,465 356,450 356,448 357,444 357,441 355,438 351,434 350,433 350,408" /><polygon fill="#A8D7B9" points="350,340 355,348 356,353 357,358 358,397 350,397 353,395 354,387 354,382 354,377 350,373 350,353 347,346 342,346 339,351 338,345 341,337 339,332 350,340" /><polyline fill="none" points="463,1034 477,1032 481,1032 571,1020 572,1021 579,1023 580,1023 607,1021 611,1021 648,1026 657,1028 685,1031" stroke="#FF6319" stroke-width="3" /><polyline fill="none" points="685,1031 686,1031 687,1029 689,1026 705,1013 749,980 752,978 753,976 756,955 758,953 792,916 794,912 795,901 795,899 793,891" stroke="#FF6319" stroke-width="3" /><polyline fill="none" points="396,844 396,1004 397,1014 401,1019 419,1020 440,1017 445,1020 447,1026 454,1033 458,1034 463,1034" stroke="#FF6319" stroke-width="3" /><polyline fill="none" points="462,1034 463,1034" stroke="#FF6319" stroke-width="3" /><polyline fill="none" points="396,844 400,840 406,839 463,839 468,839 489,845 499,846 509,845 542,836 547,833 557,819 560,807 563,801 568,797 583,787 589,783 590,779 591,751 594,747 599,745 643,748 732,749 742,750 750,750 758,752 763,755 776,765 782,768 788,769 807,766 824,767 868,764 878,764 892,769 898,770 911,770" stroke="#FF6319" stroke-width="3" /></g><g id="r"><polygon fill="#A8D7B9" points="532,1771 530,1794 512,1843 484,1840 487,1812 503,1776 522,1672 547,1679 537,1722 532,1771" /><polygon fill="#A8D7B9" points="273,2240 284,2256 270,2269 267,2265 252,2286 243,2277 270,2253 255,2244 262,2229 273,2240" /><polygon fill="#A8D7B9" points="465,1580 475,1587 469,1597 466,1597 465,1595 468,1590 465,1588 461,1589 464,1580 465,1580" /><polygon fill="#A8D7B9" points="281,1535 285,1533 289,1539 287,1539 287,1541 295,1553 282,1566 280,1567 265,1548 269,1544 269,1540 274,1537 281,1535" /><polygon fill="#A8D7B9" points="131,2386 144,2392 156,2380 177,2389 207,2344 223,2337 230,2345 207,2353 176,2404 158,2414 145,2412 112,2381 120,2376 131,2386" /><polygon fill="#A8D7B9" points="208,2330 211,2335 209,2335 211,2340 204,2344 196,2335 201,2332 200,2327 205,2324 208,2330" /><polygon fill="#A8D7B9" points="286,1655 295,1652 306,1654 322,1655 324,1651 337,1659 332,1666 311,1686 298,1668 288,1674 275,1663 276,1654 286,1655" /><polygon fill="#A8D7B9" points="263,1645 265,1648 274,1653 277,1658 274,1664 265,1661 256,1652 252,1648 256,1642 263,1645" /><polygon fill="#A8D7B9" points="345,1624 339,1634 333,1635 327,1652 319,1651 324,1623 330,1618 320,1603 325,1599 320,1586 323,1582 351,1575 351,1598 345,1624" /><polygon fill="#A8D7B9" points="372,1703 374,1702 381,1711 378,1716 382,1716 377,1725 377,1734 382,1732 381,1738 372,1732 373,1729 367,1726 360,1727 357,1723 353,1728 350,1725 356,1718 357,1721 366,1715 369,1715 375,1710 372,1709 372,1703" /><polygon fill="#A8D7B9" points="301,1907 306,1906 307,1908 302,1910 296,1915 300,1917 306,1913 303,1910 308,1907 313,1915 312,1916 316,1921 307,1923 301,1922 298,1924 289,1933 275,1951 270,1958 264,1965 264,1969 263,1975 263,1984 266,1999 257,2002 245,1981 244,1977 241,1969 236,1961 237,1958 264,1897 267,1892 272,1893 278,1899 281,1900 290,1903 297,1907 301,1907" /><polygon fill="#A8D7B9" points="301,1906 298,1907 278,1897 272,1891 266,1890 267,1883 273,1858 270,1847 284,1837 315,1839 318,1843 325,1843 328,1848 321,1854 319,1876 304,1892 310,1901 301,1906" /><polygon fill="#A8D7B9" points="189,2114 185,2116 182,2124 189,2131 182,2137 141,2098 149,2090 162,2082 191,2108 189,2114" /><polygon fill="#A8D7B9" points="192,2193 197,2202 183,2217 182,2217 170,2204 166,2196 184,2183 192,2193" /><polygon fill="#A8D7B9" points="206,2189 207,2189 197,2201 192,2193 185,2182 194,2175 206,2189" /><polygon fill="#A8D7B9" points="157,2209 152,2211 146,2202 154,2198 157,2203 166,2197 168,2202 170,2205 157,2210 157,2209" /><polygon fill="#A8D7B9" points="347,1824 360,1826 370,1830 366,1835 362,1848 357,1847 358,1854 351,1853 353,1848 345,1829 342,1827 340,1836 337,1835 335,1842 333,1839 330,1832 335,1824 343,1814 349,1802 347,1824" /><polygon fill="#A8D7B9" points="323,1812 327,1823 321,1832 312,1835 291,1832 291,1825 302,1828 316,1817 310,1814 315,1808 319,1805 322,1812 322,1800 324,1805 323,1812" /><polygon fill="#A8D7B9" points="284,1811 287,1814 290,1813 290,1829 287,1831 268,1832 271,1818 273,1819 282,1809 284,1811" /><polygon fill="#A8D7B9" points="292,1782 301,1775 303,1785 309,1782 310,1789 296,1790 298,1801 289,1802 292,1782" /><polygon fill="#A8D7B9" points="202,1789 215,1812 223,1823 231,1829 237,1832 246,1834 263,1835 265,1840 223,1834 207,1837 201,1842 200,1840 196,1832 194,1834 187,1821 183,1808 189,1807 186,1788 198,1777 201,1781 202,1789" /><polygon fill="#A8D7B9" points="333,1542 338,1547 328,1558 323,1556 327,1552 325,1550 331,1543 330,1541 332,1538 333,1542" /><polygon fill="#A8D7B9" points="402,2064 407,2065 413,2085 410,2089 392,2082 383,2082 383,2072 393,2063 402,2064" /><polygon fill="#A8D7B9" points="383,2083 392,2084 390,2091 387,2101 371,2098 375,2095 378,2089 378,2086 382,2087 383,2083" /><polygon fill="#A8D7B9" points="503,1765 500,1765 498,1758 499,1749 460,1745 462,1726 463,1722 472,1728 509,1730 503,1765" /><polygon fill="#A8D7B9" points="342,1704 346,1702 351,1703 354,1698 359,1697 359,1701 354,1706 355,1708 345,1713 339,1720 336,1725 336,1727 339,1730 336,1733 334,1730 333,1723 335,1718 337,1715 338,1712 334,1705 335,1701 338,1704 342,1704" /><polygon fill="#A8D7B9" points="170,2030 178,2037 177,2040 176,2049 175,2055 167,2052 168,2047 169,2042 170,2035 170,2030" /><polygon fill="#A8D7B9" points="138,1935 136,1935 139,1919 141,1920 141,1917 142,1919 146,1918 146,1931 140,1936 138,1935" /><polygon fill="#A8D7B9" points="155,1913 153,1920 154,1926 149,1924 148,1931 146,1907 147,1905 152,1904 155,1908 155,1913" /><polygon fill="#A8D7B9" points="143,1882 145,1915 138,1913 137,1905 140,1904 140,1901 136,1901 137,1891 141,1892 143,1882" /><polygon fill="#A8D7B9" points="199,1880 196,1883 178,1892 174,1899 172,1909 176,1921 185,1931 189,1940 192,1958 197,1963 210,1969 225,1968 232,1962 237,1967 250,1994 249,2003 225,2003 214,1988 206,1981 183,1980 172,1974 166,1977 166,1983 155,1969 147,1958 157,1959 171,1954 176,1949 172,1940 158,1931 155,1921 156,1911 155,1906 147,1898 145,1894 144,1877 140,1867 143,1857 188,1862 203,1858 203,1861 199,1880" /><polygon fill="#A8D7B9" points="151,1834 157,1834 170,1829 180,1853 181,1853 185,1861 170,1860 142,1856 147,1841 151,1834" /><polygon fill="#A8D7B9" points="339,1748 346,1762 353,1763 362,1788 359,1804 349,1802 346,1811 335,1824 330,1832 328,1820 333,1820 344,1804 347,1781 343,1765 330,1741 335,1736 343,1740 339,1748" /><polygon fill="#A8D7B9" points="335,1709 338,1712 337,1715 335,1718 333,1723 334,1727 335,1732 337,1733 335,1735 333,1735 328,1727 330,1724 330,1717 329,1712 329,1707 334,1704 335,1709" /><polygon fill="#A8D7B9" points="229,2175 219,2181 204,2199 208,2193 237,2159 243,2151 244,2154 238,2159 235,2168 229,2175" /><polygon fill="#A8D7B9" points="282,2197 296,2205 305,2193 323,2186 310,2202 304,2247 294,2244 283,2223 272,2216 282,2197" /><polygon fill="#A8D7B9" points="248,2179 264,2189 268,2182 283,2192 276,2203 274,2206 271,2216 246,2200 247,2192 248,2179" /><polygon fill="#A8D7B9" points="299,2195 301,2197 296,2203 292,2199 292,2202 290,2201 291,2199 284,2194 288,2188 299,2195" /><polygon fill="#A8D7B9" points="119,1874 124,1874 119,1887 113,1887 112,1883 109,1883 108,1879 112,1864 116,1874 119,1874" /><polygon fill="#A8D7B9" points="476,1863 491,1863 489,1886 474,1956 458,1953 462,1943 460,1942 467,1923 474,1889 476,1863" /><polygon fill="#A8D7B9" points="451,1910 451,1906 460,1905 461,1910 460,1915 467,1918 463,1930 459,1927 442,1920 445,1918 447,1913 442,1912 441,1909 451,1910" /><polygon fill="#A8D7B9" points="437,1952 436,1958 434,1957 414,1956 416,1948 435,1949 437,1949 437,1952" /><polygon fill="#A8D7B9" points="473,1888 468,1911 461,1910 462,1899 464,1900 464,1894 464,1892 464,1888 466,1888 473,1888" /><polygon fill="#A8D7B9" points="407,1944 426,1947 415,1946 406,1944 405,1946 415,1947 414,1956 398,1953 400,1942 407,1944" /><polygon fill="#A8D7B9" points="347,1970 348,1968 355,1969 350,1985 352,1987 349,1990 343,1983 342,1978 346,1970 347,1970" /><polygon fill="#A8D7B9" points="74,1888 48,1876 43,1869 32,1838 35,1833 49,1835 52,1857 59,1869 71,1878 74,1888" /><polygon fill="#A8D7B9" points="118,1643 104,1652 103,1653 98,1653 91,1643 113,1635 118,1643" /><polygon fill="#A8D7B9" points="111,1982 113,1982 116,1982 119,1981 122,1980 121,1983 122,1986 123,1988 124,1989 126,1991 129,1993 130,1997 131,1999 131,2003 130,2004 129,2005 128,2006 127,2008 123,2008 122,2009 119,2011 119,2011 116,2012 115,2014 114,2016 112,2017 111,2016 110,2014 111,2013 111,2013 109,2011 107,2009 107,2008 108,2007 106,2005 104,2000 105,1997 104,1997 103,1993 102,1992 103,1990 104,1988 106,1987 106,1986 110,1984 111,1982" /><polygon fill="#A8D7B9" points="146,1805 147,1810 137,1813 132,1818 126,1826 120,1822 123,1775 123,1755 127,1753 133,1769 146,1805" /><polygon fill="#A8D7B9" points="121,1756 121,1773 117,1775 115,1782 121,1784 121,1791 107,1781 108,1771 116,1759 121,1756" /><polygon fill="#A8D7B9" points="114,1821 118,1820 119,1825 119,1831 116,1856 112,1859 111,1853 111,1838 113,1825 114,1821" /><polygon fill="#A8D7B9" points="149,2217 152,2228 145,2224 126,2234 129,2242 120,2247 118,2236 133,2228 132,2223 149,2217" /><polygon fill="#A8D7B9" points="360,2129 365,2132 362,2134 356,2147 349,2144 352,2140 356,2133 356,2133 358,2128 360,2129" /><polygon fill="#A8D7B9" points="85,1826 95,1824 100,1823 101,1826 101,1829 102,1830 104,1836 105,1838 106,1842 106,1844 106,1846 105,1851 105,1853 104,1854 104,1855 102,1855 101,1854 99,1855 100,1856 97,1858 89,1852 93,1846 90,1841 96,1839 95,1839 94,1838 95,1837 95,1835 94,1835 91,1835 90,1834 90,1834 89,1833 90,1832 90,1832 89,1832 88,1830 89,1830 89,1829 90,1829 91,1830 92,1829 92,1828 96,1825 96,1824 90,1826 89,1826 88,1827 88,1827 88,1827 86,1828 88,1828 84,1829 83,1827 84,1827 83,1826 82,1826 82,1826 85,1826" /><polygon fill="#A8D7B9" points="65,1823 74,1820 78,1825 75,1837 86,1835 89,1840 80,1845 62,1826 65,1823" /><polygon fill="#A8D7B9" points="64,1850 68,1847 72,1845 74,1847 75,1848 72,1855 73,1854 75,1847 76,1848 79,1846 83,1850 78,1855 65,1863 61,1863 60,1863 57,1856 57,1851 58,1849 61,1850 64,1850" /><polygon fill="#A8D7B9" points="59,1826 59,1826 78,1846 77,1846 77,1848 74,1845 72,1843 72,1845 70,1845 67,1848 65,1849 62,1849 58,1847 58,1847 59,1844 59,1839 58,1836 56,1833 56,1832 55,1829 59,1826" /><polygon fill="#A8D7B9" points="303,1563 312,1557 315,1559 319,1556 325,1564 318,1564 316,1568 310,1573 303,1563" /><polygon fill="#A8D7B9" points="386,2032 392,2033 393,2034 397,2035 398,2040 401,2043 402,2047 389,2044 386,2039 386,2032" /><polygon fill="#A8D7B9" points="18,1746 36,1747 34,1757 32,1760 30,1759 27,1752 24,1751 17,1755 15,1750 18,1746" /><polygon fill="#A8D7B9" points="368,1921 365,1921 363,1912 361,1908 358,1903 356,1899 353,1897 354,1896 354,1894 351,1887 352,1886 351,1884 351,1882 349,1881 353,1875 353,1878 354,1883 355,1888 357,1893 360,1900 362,1904 366,1911 370,1916 371,1917 369,1919 368,1921" /><polygon fill="#A8D7B9" points="318,1834 324,1829 330,1833 331,1838 330,1843 325,1843 323,1840 315,1839 312,1835 318,1834" /><polygon fill="#A8D7B9" points="290,1832 310,1835 313,1836 314,1836 315,1839 310,1839 301,1837 291,1836 284,1837 290,1832" /><polygon fill="#A8D7B9" points="288,1831 290,1831 279,1839 278,1838 272,1838 267,1840 264,1835 265,1832 268,1832 288,1831" /><polygon fill="#A8D7B9" points="75,1688 74,1695 79,1701 83,1699 85,1704 65,1717 48,1686 51,1682 68,1677 75,1688" /><polygon fill="#A8D7B9" points="295,2110 307,2122 308,2129 314,2119 326,2128 324,2134 337,2144 326,2149 327,2144 321,2142 316,2149 290,2125 295,2110" /><polygon fill="#A8D7B9" points="305,2093 327,2108 324,2116 321,2124 317,2120 321,2115 313,2107 309,2113 296,2105 302,2100 305,2093" /><polygon fill="#A8D7B9" points="313,2148 311,2150 310,2149 309,2152 305,2150 296,2144 301,2136 307,2143 309,2145 313,2148" /><polygon fill="#A8D7B9" points="187,2298 190,2295 195,2300 193,2302 204,2313 207,2313 202,2317 184,2301 187,2298" /><polygon fill="#A8D7B9" points="222,2054 223,2057 216,2056 213,2065 186,2053 189,2045 181,2041 183,2036 187,2032 190,2025 194,2031 191,2033 193,2035 196,2040 208,2046 208,2040 215,2051 222,2054" /><polyline fill="none" points="566,1530 546,1434 546,1430 574,1261 577,1201 576,1156 575,1154 569,1145 566,1143 556,1143 547,1135" stroke="#FCCC0A" stroke-width="3" /><polyline fill="none" points="547,1135 545,1134 542,1134 526,1142 523,1143 519,1141 516,1140 490,1144 483,1145 441,1149 435,1148 431,1147 428,1145 424,1141 418,1133 414,1130 413,1128 413,1122 412,1101 414,1099 418,1098 419,1098 420,1082 426,986 425,983 417,959 413,948 407,934 391,890 386,873 385,864 385,821 386,819 388,818 405,818 411,814 465,815 515,816 527,816 530,817 533,818 535,824 537,826 546,829 549,829 551,827" stroke="#FCCC0A" stroke-width="3" /><polyline fill="none" points="551,827 558,816 560,807 563,801 568,797 583,787 589,783 590,779 591,751 594,747 599,745 610,746 643,748 732,749 742,750 750,750 758,752 763,755 776,765 782,768 788,769 807,766 824,767 868,764 878,764 884,766 892,769 898,770 911,770" stroke="#FCCC0A" stroke-width="3" /></g></g><g id="routes"><g id="1"><polyline fill="none" points="417,1142 420,1146 423,1149 425,1150 427,1149 428,1148 427,1146 425,1145 419,1143 417,1142" stroke="#EE352E" stroke-width="3" /><polyline fill="none" points="417,1142 414,1135 409,1111 406,1101 408,1069 389,1018 385,980 384,865 382,853 380,836 375,820 371,815 350,779 343,752 344,721 344,669 338,648 338,334 340,328 350,313 350,274 355,253 361,232 361,203 357,171" stroke="#EE352E" stroke-width="3" /></g><g id="2"><polyline fill="none" points="407,1088 408,1069 389,1018 385,980 384,865 380,836 375,820 371,815 350,779 343,752 344,693" stroke="#EE352E" stroke-width="3" /><polyline fill="none" points="541,1143 524,1145 504,1128 463,1135 448,1134 430,1128 428,1121 430,1099 420,1093 409,1092 407,1088" stroke="#EE352E" stroke-width="3" /><polyline fill="none" points="693,1171 681,1176 679,1177 648,1185 632,1188 627,1187 620,1183 559,1145 556,1144 541,1143" stroke="#EE352E" stroke-width="3" /><polyline fill="none" points="344,693 344,669 346,663 350,663 369,662 374,661 384,651 394,643 396,637 396,533" stroke="#EE352E" stroke-width="3" /><polyline fill="none" points="791,1318 772,1289 728,1224 712,1199 707,1193 707,1190 698,1172 696,1170 695,1171 693,1171" stroke="#EE352E" stroke-width="3" /><polyline fill="none" points="396,533 400,525 423,515 471,505 477,500 494,491 525,428 525,425 514,405 510,370 518,351 525,346 529,336 537,334 544,326 548,308 543,279 486,170 475,62 476,30" stroke="#EE352E" stroke-width="3" /></g><g id="3"><polyline fill="none" points="407,1088 408,1069 389,1018 385,980 384,865 380,836 371,815 350,779 343,752 344,694" stroke="#EE352E" stroke-width="3" /><polyline fill="none" points="541,1144 524,1145 504,1128 463,1135 448,1134 430,1128 428,1121 430,1099 420,1093 409,1092 407,1088" stroke="#EE352E" stroke-width="3" /><polyline fill="none" points="754,1143 681,1176 679,1177 648,1185 632,1188 627,1187 620,1183 559,1145 556,1144 541,1144" stroke="#EE352E" stroke-width="3" /><polyline fill="none" points="344,694 344,669 346,663 369,662 374,661 394,643 396,637 397,517 396,509 388,508" stroke="#EE352E" stroke-width="3" /><polyline fill="none" points="914,1069 884,1094 819,1148 816,1149 788,1139 787,1138 783,1135 779,1132 775,1133 754,1143" stroke="#EE352E" stroke-width="3" /></g><g id="4"><polyline fill="none" points="754,1143 681,1176 679,1177 648,1185 632,1188 627,1187 620,1183 559,1145 556,1144 541,1144" stroke="#00933C" stroke-width="3" /><polyline fill="none" points="430,591 429,567 433,540 433,533 430,521 427,504 424,497 415,487 413,482 408,425 409,416 408,352 411,322 411,316 410,289 411,245 412,242 418,229 421,215 419,204 420,200 426,170 427,150" stroke="#00933C" stroke-width="3" /><polyline fill="none" points="541,1144 524,1145 503,1150 489,1155 471,1158 462,1158 423,1147 418,1144 417,1133 419,1100 420,1098 427,1090 429,1088 430,1079 427,1070 429,1046 430,1034 429,1027 430,1007 430,994 431,988 427,974 423,966 422,881 428,874 430,871 430,725 430,591" stroke="#00933C" stroke-width="3" /></g><g id="5"><polyline fill="none" points="546,300 546,292 547,288 561,231 562,227 567,162 572,81 573,71 573,62 573,57" stroke="#00933C" stroke-width="3" /><polyline fill="none" points="693,1171 681,1176 679,1177 648,1185 632,1188 627,1187 620,1183 559,1145 554,1144 523,1144" stroke="#00933C" stroke-width="3" /><polyline fill="none" points="523,1144 503,1150 489,1155 471,1158 462,1158 423,1147 418,1144 417,1139 417,1133 419,1100 420,1098 427,1090 429,1088 430,1079 427,1070 429,1046 430,1034 429,1027 430,1007 430,994 431,988 427,974 423,966 422,881 424,879 428,874 430,871 430,725 429,569 433,540 433,533 430,519" stroke="#00933C" stroke-width="3" /><polyline fill="none" points="791,1318 772,1289 728,1224 712,1199 707,1193 707,1190 698,1172 696,1170 695,1171 693,1171" stroke="#00933C" stroke-width="3" /><polyline fill="none" points="430,519 427,514 471,505 477,500 494,491 525,428 525,425 514,405 512,398 510,370 518,351 525,346 529,336 537,334 544,326 548,308 543,279 486,170 475,62 475,56" stroke="#00933C" stroke-width="3" /></g><g id="6"><polyline fill="none" points="429,1084 429,1077 427,1070 429,1046 430,1034 429,1027 429,1014 430,1007 430,994 431,989 431,988 427,974 423,969 423,966 422,881 424,879 428,874 430,871 430,725 429,569 431,547" stroke="#00933C" stroke-width="3" /><polyline fill="none" points="431,547 436,543 439,542 447,545 451,545 505,545 508,544 515,532 515,528 512,514 512,512 517,499 528,486 530,484 536,444 541,437 545,429 544,422 539,406 538,403 541,399 550,393 562,385 565,382 600,340 600,340 635,314 638,310 646,274 655,255 656,254 664,227 663,218 660,208 660,206 663,200" stroke="#00933C" stroke-width="3" /></g><g id="7"><polyline fill="none" points="383,880 396,880 399,878 403,877 420,876 508,876 512,876 532,870 533,870 539,864 542,861 545,854 544,851 539,847 538,845 535,836 535,834 535,821 537,819 539,817 549,818 556,819 577,828 581,828 634,808 637,806 650,790 659,782 667,777 749,716 790,685 795,681 842,624 852,608 861,600 870,588" stroke="#B933AD" stroke-width="3" /></g><g id="a"><polyline fill="none" points="519,1120 516,1116 513,1114 510,1115 497,1120 483,1122 473,1123 468,1121 461,1118 438,1104 433,1102 416,1102 413,1100 412,1097 413,1066 411,1061 405,1049 404,1047 398,1016 396,1005 396,992 394,988 375,975 373,970 373,817 373,642 373,604 372,601 367,593 367,587 369,576 368,564 362,524 361,510 356,489 351,465 346,458 341,449 338,440 333,427 331,426 327,424 324,419 319,395 315,379 314,375 314,358 315,334 315,331 322,319 335,300 338,296" stroke="#0039A6" stroke-width="3" /><polyline fill="none" points="949,990 948,995 947,997 906,1030 869,1061 864,1063 861,1062 859,1060 849,1048 847,1046 844,1045 841,1046 826,1052 809,1062 805,1064 665,1129 661,1130 612,1142 609,1142 580,1144 574,1144 569,1148 565,1150 561,1152 549,1153 536,1153 532,1151 531,1144 519,1120" stroke="#0039A6" stroke-width="3" /><polyline fill="none" points="1013,934 1007,941 1004,942 985,955 959,974 958,974 955,977 954,980 953,981 949,990" stroke="#0039A6" stroke-width="3" /><polyline fill="none" points="1014,934 1013,934" stroke="#0039A6" stroke-width="3" /><polyline fill="none" points="1052,885 1045,892 1042,894 1033,907 1031,910 1027,920 1025,923 1023,925 1022,927 1013,934" stroke="#0039A6" stroke-width="3" /><polyline fill="none" points="1262,1337 1275,1323 1279,1317 1294,1300 1299,1293 1319,1264 1320,1262 1321,1256 1322,1251 1320,1246 1319,1244 1317,1240" stroke="#0039A6" stroke-width="3" /><polyline fill="none" points="1317,1240 1320,1243 1326,1245 1331,1245 1340,1243 1345,1241 1365,1225 1377,1213 1384,1207 1395,1202 1401,1199 1431,1177 1437,1169 1451,1137 1451,1132 1452,1125 1455,1116 1462,1102" stroke="#0039A6" stroke-width="3" /><polyline fill="none" points="1317,1240 1264,1192 1258,1186 1112,1013 1106,1007 1030,941 1027,939 1020,934 1018,932 1014,934" stroke="#0039A6" stroke-width="3" /></g><g id="air"><polyline fill="none" points="1258,994 1258,993 1258,993 1256,993 1256,992 1255,991 1256,990 1256,990 1255,989 1256,988" stroke="#808183" stroke-width="3" /><polyline fill="none" points="1258,994 1268,1000 1272,1000 1277,999 1279,998 1280,991 1291,973 1291,970 1289,968 1279,966 1277,966 1267,969 1264,972 1262,978 1256,988" stroke="#808183" stroke-width="3" /><polyline fill="none" points="1251,996 1252,995 1253,995 1254,994 1254,994 1255,993 1257,994 1257,994 1258,993 1258,994" stroke="#808183" stroke-width="3" /><polyline fill="none" points="1256,988 1255,989 1255,990 1255,991 1254,991 1254,993 1253,993 1252,994 1252,995 1251,996" stroke="#808183" stroke-width="3" /><polyline fill="none" points="1181,952 1184,959 1180,967 1180,973 1182,980 1186,985 1189,987 1199,995 1210,1001 1222,1006 1229,1006 1237,1005 1241,1002 1251,996" stroke="#808183" stroke-width="3" /><polyline fill="none" points="1097,995 1100,989 1102,987 1118,981 1123,976 1128,971 1129,970 1145,966 1152,965 1165,961 1169,959 1174,950 1177,949 1180,950 1181,952" stroke="#808183" stroke-width="3" /><polyline fill="none" points="1077,803 1068,814 1067,818 1069,821 1110,852 1154,890 1160,898 1168,911 1170,917 1171,928 1173,935 1175,941 1181,952" stroke="#808183" stroke-width="3" /></g><g id="c"><polyline fill="none" points="519,1120 516,1116 510,1115 497,1120 483,1122 473,1123 468,1121 461,1118 438,1104 433,1102 416,1102 413,1100 412,1097 413,1066 411,1061 405,1049 404,1047 398,1016 396,1005 396,992 394,988 375,975 373,970 373,817 373,642 373,604 372,601 367,593 367,587 369,576 368,564 362,524 361,510 356,489 351,465 346,458 341,449 339,443" stroke="#0039A6" stroke-width="3" /><polyline fill="none" points="931,1010 906,1030 869,1061 864,1063 861,1062 859,1060 849,1048 847,1046 844,1045 841,1046 826,1052 809,1062 805,1064 665,1129 661,1130 612,1142 609,1142 580,1144 574,1144 569,1148 565,1150 561,1152 549,1153 536,1153 532,1151 531,1144 519,1120" stroke="#0039A6" stroke-width="3" /></g><g id="d"><polyline fill="none" points="563,1323 574,1261 574,1259 577,1201 576,1156 575,1154 569,1145 566,1143 556,1143 537,1127" stroke="#FF6319" stroke-width="3" /><polyline fill="none" points="813,1605 810,1602 804,1592 803,1587 800,1581 798,1576 791,1572 787,1570 784,1570 783,1568 756,1534 754,1532 683,1521 680,1518 675,1512 674,1508 643,1407 642,1403 628,1372 621,1356 620,1355 621,1348 621,1346 618,1344 592,1340 590,1339 564,1335 563,1335 562,1332 563,1323" stroke="#FF6319" stroke-width="3" /><polyline fill="none" points="537,1127 523,1114 454,1060 451,1054 447,1027 445,1020 440,1017 419,1020 401,1019 397,1014 396,1004 396,844 391,839" stroke="#FF6319" stroke-width="3" /><polyline fill="none" points="376,839 374,838 373,834 373,642 373,604 372,601 367,593 367,587 369,576 368,564 362,524 361,517" stroke="#FF6319" stroke-width="3" /><polyline fill="none" points="361,517 361,504 361,493 364,488 368,485 391,473 396,471 405,472 418,471 423,469 424,465 422,451 421,435 424,412 424,397 420,381 420,375 424,357 425,351 426,318 425,296 423,276 424,243 425,238 429,225 429,213 428,204 428,198 435,196 452,196" stroke="#FF6319" stroke-width="3" /><polyline fill="none" points="391,839 391,839 385,839 385,839 377,838 376,839" stroke="#FF6319" stroke-width="3" /></g><g id="e"><polyline fill="none" points="412,1096 413,1066 412,1060 404,1047 398,1016 396,1005 396,992 394,988 375,975 373,970 373,843" stroke="#0039A6" stroke-width="3" /><polyline fill="none" points="1031,791 1034,793 1043,801 1050,807 1055,808 1062,806 1067,804 1075,794 1085,783 1093,776" stroke="#0039A6" stroke-width="3" /><polyline fill="none" points="373,843 375,840 377,838 463,839 468,839 489,845 499,846 509,845 542,836 547,833 557,819 560,807 563,801 568,797 583,787 588,785 604,767 610,763 616,761 628,757 632,756 642,749 646,749 732,749 750,750 758,752 763,755 776,765 782,768 788,769 807,766 824,767 868,764 878,764 892,769 898,770 927,770 949,772 970,776 984,778 1006,776 1013,779 1031,791" stroke="#0039A6" stroke-width="3" /></g><g id="f"><polyline fill="none" points="813,1605 814,1608 816,1609 816,1609 819,1609 826,1607 828,1606 829,1604 830,1604 834,1598" stroke="#FF6319" stroke-width="3" /><polyline fill="none" points="396,827 396,813 399,807 409,805 465,805 506,805 533,807 555,810 558,809 561,804" stroke="#FF6319" stroke-width="3" /><polyline fill="none" points="533,1156 531,1144 504,1090 499,1083 495,1080 482,1072 478,1065 473,1059 469,1052 465,1022 462,1016 458,1015 426,1019 419,1020 401,1019 399,1017 397,1014 396,1004 397,904 396,879 396,827" stroke="#FF6319" stroke-width="3" /><polyline fill="none" points="834,1598 835,1596 834,1595 830,1590 829,1587 823,1575 819,1570 807,1544 804,1539 795,1515 779,1479 777,1475 718,1398 686,1356 680,1348 674,1341 670,1335 664,1328" stroke="#FF6319" stroke-width="3" /><polyline fill="none" points="664,1328 659,1319 658,1314 659,1310 662,1303 664,1297 661,1293 657,1286 648,1275 644,1272 633,1272 630,1269 628,1266 627,1259 628,1241 625,1237 621,1237 590,1235 578,1236 559,1235 548,1234 540,1232 537,1230 535,1223 533,1207 533,1196 533,1156" stroke="#FF6319" stroke-width="3" /><polyline fill="none" points="561,804 564,799 568,797 583,787 588,785 604,767 610,763 616,761 628,757 632,756 642,749 646,749 732,749 750,750 758,752 763,755 776,765 782,768 788,769 807,766 824,767 868,764 878,764 892,769 898,770 927,770 949,772 970,776 984,778 1006,776 1013,779 1030,791 1034,793 1041,793 1046,789 1093,735 1105,718 1107,714 1116,709 1123,702" stroke="#FF6319" stroke-width="3" /></g><g id="fs"><polyline fill="none" points="679,1224 678,1222 676,1219 676,1217 676,1212 668,1182 663,1162 658,1139 657,1137 656,1135" stroke="#808183" stroke-width="3" /></g><g id="g"><polyline fill="none" points="533,1156 536,1153 549,1153 565,1150 569,1148 603,1122 653,1085 655,1081 655,1077 628,1043 617,1024 615,1019 581,973 579,967 580,955 578,951 552,931 545,924 528,900 524,895 521,888 521,882 522,875 532,854 542,841" stroke="#6CBE45" stroke-width="3" /><polyline fill="none" points="664,1328 659,1319 658,1314 659,1310 662,1303 664,1297 661,1293 657,1286 648,1275 644,1272 633,1272 630,1269 628,1266 627,1259 628,1241 625,1237 621,1237 590,1235 578,1236 559,1235 548,1234 540,1232 537,1230 535,1223 533,1207 533,1196 533,1156" stroke="#6CBE45" stroke-width="3" /></g><g id="gs"><polyline fill="none" points="387,875 387,875 388,876 388,876 388,876 389,876 389,876 389,876 389,876 416,876" stroke="#808183" stroke-width="3" /></g><g id="h"><polyline fill="none" points="1262,1337 1275,1323 1279,1317 1294,1300 1299,1293 1319,1264 1320,1262 1321,1256 1322,1251 1320,1246 1319,1244 1317,1240 1264,1192 1261,1189" stroke="#808183" stroke-width="3" /></g><g id="j"><polyline fill="none" points="469,1033 481,1032 571,1020 580,1023 607,1021 611,1021 648,1026 657,1028 680,1031 741,1038 820,1049 839,1052 841,1051 868,1029 869,1028 893,999 910,977 910,974 895,957 894,953 898,947 905,939 921,925 930,918 942,909 948,905 954,896 957,893 967,883 970,881 979,876 985,872 987,870 990,865 993,856 1000,842 1002,839 1007,832 1018,824 1022,818 1027,816 1030,815 1039,818 1044,819 1050,818 1053,817 1058,814 1061,810 1067,804" stroke="#996633" stroke-width="3" /><polyline fill="none" points="422,1123 422,1118 422,1112 423,1109 424,1103 425,1099 428,1091 429,1089 430,1087 431,1085 430,1077 431,1061 431,1050 431,1039 433,1037 434,1037 445,1037 469,1033" stroke="#996633" stroke-width="3" /><polyline fill="none" points="1067,804 1071,800 1071,799 1072,799 1073,797 1074,795 1075,794 1078,791 1085,783 1093,776" stroke="#996633" stroke-width="3" /></g><g id="l"><polyline fill="none" points="903,1180 901,1150 900,1147 898,1142 868,1106 846,1082 844,1080 836,1069 835,1067 832,1060 830,1054 819,1043 811,1038 807,1035 803,1030 799,1021 800,1015 800,1004 801,992 800,987 795,984 784,982 731,975 695,969 690,970 666,990 661,993 654,1000 650,1001 647,999 633,981 631,978 622,970 619,970 600,983 593,987 589,988 497,971 493,971 373,971" stroke="#A7A9AC" stroke-width="3" /></g><g id="n"><polyline fill="none" points="547,1421 574,1261 574,1259 577,1201 576,1156 575,1154 569,1145 566,1143 556,1143 539,1127" stroke="#FCCC0A" stroke-width="3" /><polyline fill="none" points="561,805 562,802 562,800 562,795 564,745 566,713 566,711 567,708 569,696 576,667" stroke="#FCCC0A" stroke-width="3" /><polyline fill="none" points="539,1127 522,1115 453,1060 447,1058 445,1057 437,1058 434,1057 424,1055 422,1053 422,1051 426,986 425,983 417,959 413,948 407,934 391,890 386,873 385,864 385,821 386,819 388,818 405,818 411,814 465,815 515,816 535,816 541,818 550,817 557,818 559,815 561,805" stroke="#FCCC0A" stroke-width="3" /><polyline fill="none" points="813,1605 810,1602 808,1599 805,1593 804,1590 803,1586 801,1576 794,1552 792,1546 789,1541 731,1464 726,1458 723,1453 719,1451 716,1449 712,1448 709,1447 663,1439 661,1438 658,1437 650,1432 647,1430 644,1429 598,1422 584,1420 579,1421 566,1423 555,1425 550,1424 548,1423 547,1421" stroke="#FCCC0A" stroke-width="3" /></g><g id="si"><polyline fill="none" points="109,2345 113,2336 116,2331 128,2318 133,2308 137,2303 174,2268 178,2264 191,2249 200,2240 216,2228 235,2213 241,2205 245,2198 245,2192 250,2154 251,2145 253,2139 257,2128 261,2122 266,2113 277,2102 295,2086 300,2079 308,2067 316,2051 334,2016 339,2007 343,2002 354,1992 357,1990 363,1982 368,1971 372,1961 374,1954 384,1909 386,1902 388,1880 389,1874 391,1866 401,1836 404,1827 432,1735 435,1724 434,1711 433,1704 430,1693 429,1685 431,1650 431,1642 427,1610 428,1601 432,1595 432,1590 431,1586 429,1582 423,1578 417,1574 408,1568 403,1564 398,1556 394,1549 392,1540 391,1535 381,1521 376,1517 374,1513 370,1501 369,1492" stroke="#0039A6" stroke-width="3" /></g><g id="z"><polyline fill="none" points="469,1033 481,1032 571,1020 580,1023 607,1021 611,1021 648,1026 657,1028 680,1031 741,1038 820,1049 839,1052 841,1051 868,1029 869,1028 893,999 910,977 910,974 895,957 894,953 898,947 905,939 921,925 930,918 942,909 948,905 954,896 957,893 967,883 970,881 979,876 985,872 987,870 990,865 993,856 1000,842 1002,839 1007,832 1018,824 1022,818 1027,816 1030,815 1039,818 1044,819 1050,818 1053,817 1058,814 1061,810 1067,804" stroke="#996633" stroke-width="3" /><polyline fill="none" points="422,1123 422,1118 422,1112 423,1109 424,1103 425,1099 428,1091 429,1089 430,1087 431,1085 430,1077 431,1061 431,1050 431,1039 433,1037 434,1037 445,1037 469,1033" stroke="#996633" stroke-width="3" /><polyline fill="none" points="1067,804 1071,800 1071,799 1072,799 1073,797 1074,795 1075,794 1078,791 1085,783 1093,776" stroke="#996633" stroke-width="3" /></g></g></svg>